<?xml version="1.0" encoding="UTF-8"?>
<!DOCTYPE svg PUBLIC "-//W3C//DTD SVG 1.1//EN" "http://www.w3.org/Graphics/SVG/1.1/DTD/svg11.dtd">
<svg version="1.1" xmlns="http://www.w3.org/2000/svg" xmlns:xlink="http://www.w3.org/1999/xlink" x="0" y="0" width="720" height="576" viewBox="0, 0, 720, 576">
  <defs>
    <clipPath id="Clip_1">
      <path d="M116.05,14.17 L705.82,14.17 L705.82,494.42 L116.05,494.42 z"/>
    </clipPath>
    <clipPath id="Clip_2">
      <path d="M116.05,14.17 L705.82,14.17 L705.82,494.42 L116.05,494.42 z"/>
    </clipPath>
    <clipPath id="Clip_3">
      <path d="M116.05,14.17 L705.82,14.17 L705.82,494.42 L116.05,494.42 z"/>
    </clipPath>
    <clipPath id="Clip_4">
      <path d="M116.05,14.17 L705.82,14.17 L705.82,494.42 L116.05,494.42 z"/>
    </clipPath>
    <clipPath id="Clip_5">
      <path d="M116.05,14.17 L705.82,14.17 L705.82,494.42 L116.05,494.42 z"/>
    </clipPath>
    <clipPath id="Clip_6">
      <path d="M116.05,14.17 L705.82,14.17 L705.82,494.42 L116.05,494.42 z"/>
    </clipPath>
    <clipPath id="Clip_7">
      <path d="M116.05,14.17 L705.82,14.17 L705.82,494.42 L116.05,494.42 z"/>
    </clipPath>
    <clipPath id="Clip_8">
      <path d="M116.05,14.17 L705.82,14.17 L705.82,494.42 L116.05,494.42 z"/>
    </clipPath>
    <clipPath id="Clip_9">
      <path d="M116.05,14.17 L705.82,14.17 L705.82,494.42 L116.05,494.42 z"/>
    </clipPath>
    <clipPath id="Clip_10">
      <path d="M116.05,14.17 L705.82,14.17 L705.82,494.42 L116.05,494.42 z"/>
    </clipPath>
    <clipPath id="Clip_11">
      <path d="M116.05,14.17 L705.82,14.17 L705.82,494.42 L116.05,494.42 z"/>
    </clipPath>
    <clipPath id="Clip_12">
      <path d="M116.05,14.17 L705.82,14.17 L705.82,494.42 L116.05,494.42 z"/>
    </clipPath>
    <clipPath id="Clip_13">
      <path d="M116.05,14.17 L705.82,14.17 L705.82,494.42 L116.05,494.42 z"/>
    </clipPath>
    <clipPath id="Clip_14">
      <path d="M116.05,14.17 L705.82,14.17 L705.82,494.42 L116.05,494.42 z"/>
    </clipPath>
    <clipPath id="Clip_15">
      <path d="M116.05,14.17 L705.82,14.17 L705.82,494.42 L116.05,494.42 z"/>
    </clipPath>
    <clipPath id="Clip_16">
      <path d="M116.05,14.17 L705.82,14.17 L705.82,494.42 L116.05,494.42 z"/>
    </clipPath>
    <clipPath id="Clip_17">
      <path d="M116.05,14.17 L705.82,14.17 L705.82,494.42 L116.05,494.42 z"/>
    </clipPath>
    <clipPath id="Clip_18">
      <path d="M116.05,14.17 L705.82,14.17 L705.82,494.42 L116.05,494.42 z"/>
    </clipPath>
    <clipPath id="Clip_19">
      <path d="M116.05,14.17 L705.82,14.17 L705.82,494.42 L116.05,494.42 z"/>
    </clipPath>
    <clipPath id="Clip_20">
      <path d="M116.05,14.17 L705.82,14.17 L705.82,494.42 L116.05,494.42 z"/>
    </clipPath>
    <clipPath id="Clip_21">
      <path d="M116.05,14.17 L705.82,14.17 L705.82,494.42 L116.05,494.42 z"/>
    </clipPath>
    <clipPath id="Clip_22">
      <path d="M116.05,14.17 L705.82,14.17 L705.82,494.42 L116.05,494.42 z"/>
    </clipPath>
    <clipPath id="Clip_23">
      <path d="M116.05,14.17 L705.82,14.17 L705.82,494.42 L116.05,494.42 z"/>
    </clipPath>
    <clipPath id="Clip_24">
      <path d="M116.05,14.17 L705.82,14.17 L705.82,494.42 L116.05,494.42 z"/>
    </clipPath>
    <clipPath id="Clip_25">
      <path d="M116.05,14.17 L705.82,14.17 L705.82,494.42 L116.05,494.42 z"/>
    </clipPath>
    <clipPath id="Clip_26">
      <path d="M116.05,14.17 L705.82,14.17 L705.82,494.42 L116.05,494.42 z"/>
    </clipPath>
    <clipPath id="Clip_27">
      <path d="M116.05,14.17 L705.82,14.17 L705.82,494.42 L116.05,494.42 z"/>
    </clipPath>
    <clipPath id="Clip_28">
      <path d="M116.05,14.17 L705.82,14.17 L705.82,494.42 L116.05,494.42 z"/>
    </clipPath>
    <clipPath id="Clip_29">
      <path d="M116.05,14.17 L705.82,14.17 L705.82,494.42 L116.05,494.42 z"/>
    </clipPath>
    <clipPath id="Clip_30">
      <path d="M116.05,14.17 L705.82,14.17 L705.82,494.42 L116.05,494.42 z"/>
    </clipPath>
    <clipPath id="Clip_31">
      <path d="M116.05,14.17 L705.82,14.17 L705.82,494.42 L116.05,494.42 z"/>
    </clipPath>
    <clipPath id="Clip_32">
      <path d="M116.05,14.17 L705.82,14.17 L705.82,494.42 L116.05,494.42 z"/>
    </clipPath>
    <clipPath id="Clip_33">
      <path d="M116.05,14.17 L705.82,14.17 L705.82,494.42 L116.05,494.42 z"/>
    </clipPath>
    <clipPath id="Clip_34">
      <path d="M116.05,14.17 L705.82,14.17 L705.82,494.42 L116.05,494.42 z"/>
    </clipPath>
    <clipPath id="Clip_35">
      <path d="M116.05,14.17 L705.82,14.17 L705.82,494.42 L116.05,494.42 z"/>
    </clipPath>
    <clipPath id="Clip_36">
      <path d="M116.05,14.17 L705.82,14.17 L705.82,494.42 L116.05,494.42 z"/>
    </clipPath>
    <clipPath id="Clip_37">
      <path d="M116.05,14.17 L705.82,14.17 L705.82,494.42 L116.05,494.42 z"/>
    </clipPath>
    <clipPath id="Clip_38">
      <path d="M116.05,14.17 L705.82,14.17 L705.82,494.42 L116.05,494.42 z"/>
    </clipPath>
    <clipPath id="Clip_39">
      <path d="M116.05,14.17 L705.82,14.17 L705.82,494.42 L116.05,494.42 z"/>
    </clipPath>
    <clipPath id="Clip_40">
      <path d="M116.05,14.17 L705.82,14.17 L705.82,494.42 L116.05,494.42 z"/>
    </clipPath>
    <clipPath id="Clip_41">
      <path d="M116.05,14.17 L705.82,14.17 L705.82,494.42 L116.05,494.42 z"/>
    </clipPath>
    <clipPath id="Clip_42">
      <path d="M116.05,14.17 L705.82,14.17 L705.82,494.42 L116.05,494.42 z"/>
    </clipPath>
    <clipPath id="Clip_43">
      <path d="M116.05,14.17 L705.82,14.17 L705.82,494.42 L116.05,494.42 z"/>
    </clipPath>
    <clipPath id="Clip_44">
      <path d="M116.05,14.17 L705.82,14.17 L705.82,494.42 L116.05,494.42 z"/>
    </clipPath>
    <clipPath id="Clip_45">
      <path d="M116.05,14.17 L705.82,14.17 L705.82,494.42 L116.05,494.42 z"/>
    </clipPath>
    <clipPath id="Clip_46">
      <path d="M116.05,14.17 L705.82,14.17 L705.82,494.42 L116.05,494.42 z"/>
    </clipPath>
    <clipPath id="Clip_47">
      <path d="M116.05,14.17 L705.82,14.17 L705.82,494.42 L116.05,494.42 z"/>
    </clipPath>
    <clipPath id="Clip_48">
      <path d="M116.05,14.17 L705.82,14.17 L705.82,494.42 L116.05,494.42 z"/>
    </clipPath>
    <clipPath id="Clip_49">
      <path d="M116.05,14.17 L705.82,14.17 L705.82,494.42 L116.05,494.42 z"/>
    </clipPath>
    <clipPath id="Clip_50">
      <path d="M116.05,14.17 L705.82,14.17 L705.82,494.42 L116.05,494.42 z"/>
    </clipPath>
    <clipPath id="Clip_51">
      <path d="M116.05,14.17 L705.82,14.17 L705.82,494.42 L116.05,494.42 z"/>
    </clipPath>
    <clipPath id="Clip_52">
      <path d="M116.05,14.17 L705.82,14.17 L705.82,494.42 L116.05,494.42 z"/>
    </clipPath>
    <clipPath id="Clip_53">
      <path d="M116.05,14.17 L705.82,14.17 L705.82,494.42 L116.05,494.42 z"/>
    </clipPath>
    <clipPath id="Clip_54">
      <path d="M116.05,14.17 L705.82,14.17 L705.82,494.42 L116.05,494.42 z"/>
    </clipPath>
    <clipPath id="Clip_55">
      <path d="M116.05,14.17 L705.82,14.17 L705.82,494.42 L116.05,494.42 z"/>
    </clipPath>
    <clipPath id="Clip_56">
      <path d="M116.05,14.17 L705.82,14.17 L705.82,494.42 L116.05,494.42 z"/>
    </clipPath>
    <clipPath id="Clip_57">
      <path d="M116.05,14.17 L705.82,14.17 L705.82,494.42 L116.05,494.42 z"/>
    </clipPath>
    <clipPath id="Clip_58">
      <path d="M116.05,14.17 L705.82,14.17 L705.82,494.42 L116.05,494.42 z"/>
    </clipPath>
    <clipPath id="Clip_59">
      <path d="M116.05,14.17 L705.82,14.17 L705.82,494.42 L116.05,494.42 z"/>
    </clipPath>
    <clipPath id="Clip_60">
      <path d="M116.05,14.17 L705.82,14.17 L705.82,494.42 L116.05,494.42 z"/>
    </clipPath>
    <clipPath id="Clip_61">
      <path d="M116.05,14.17 L705.82,14.17 L705.82,494.42 L116.05,494.42 z"/>
    </clipPath>
    <clipPath id="Clip_62">
      <path d="M116.05,14.17 L705.82,14.17 L705.82,494.42 L116.05,494.42 z"/>
    </clipPath>
    <clipPath id="Clip_63">
      <path d="M116.05,14.17 L705.82,14.17 L705.82,494.42 L116.05,494.42 z"/>
    </clipPath>
    <clipPath id="Clip_64">
      <path d="M116.05,14.17 L705.82,14.17 L705.82,494.42 L116.05,494.42 z"/>
    </clipPath>
    <clipPath id="Clip_65">
      <path d="M116.05,14.17 L705.82,14.17 L705.82,494.42 L116.05,494.42 z"/>
    </clipPath>
    <clipPath id="Clip_66">
      <path d="M116.05,14.17 L705.82,14.17 L705.82,494.42 L116.05,494.42 z"/>
    </clipPath>
    <clipPath id="Clip_67">
      <path d="M116.05,14.17 L705.82,14.17 L705.82,494.42 L116.05,494.42 z"/>
    </clipPath>
    <clipPath id="Clip_68">
      <path d="M116.05,14.17 L705.82,14.17 L705.82,494.42 L116.05,494.42 z"/>
    </clipPath>
    <clipPath id="Clip_69">
      <path d="M116.05,14.17 L705.82,14.17 L705.82,494.42 L116.05,494.42 z"/>
    </clipPath>
    <clipPath id="Clip_70">
      <path d="M116.05,14.17 L705.82,14.17 L705.82,494.42 L116.05,494.42 z"/>
    </clipPath>
    <clipPath id="Clip_71">
      <path d="M116.05,14.17 L705.82,14.17 L705.82,494.42 L116.05,494.42 z"/>
    </clipPath>
    <clipPath id="Clip_72">
      <path d="M116.05,14.17 L705.82,14.17 L705.82,494.42 L116.05,494.42 z"/>
    </clipPath>
    <clipPath id="Clip_73">
      <path d="M116.05,14.17 L705.82,14.17 L705.82,494.42 L116.05,494.42 z"/>
    </clipPath>
    <clipPath id="Clip_74">
      <path d="M116.05,14.17 L705.82,14.17 L705.82,494.42 L116.05,494.42 z"/>
    </clipPath>
    <clipPath id="Clip_75">
      <path d="M116.05,14.17 L705.82,14.17 L705.82,494.42 L116.05,494.42 z"/>
    </clipPath>
    <clipPath id="Clip_76">
      <path d="M116.05,14.17 L705.82,14.17 L705.82,494.42 L116.05,494.42 z"/>
    </clipPath>
    <clipPath id="Clip_77">
      <path d="M116.05,14.17 L705.82,14.17 L705.82,494.42 L116.05,494.42 z"/>
    </clipPath>
    <clipPath id="Clip_78">
      <path d="M116.05,14.17 L705.82,14.17 L705.82,494.42 L116.05,494.42 z"/>
    </clipPath>
    <clipPath id="Clip_79">
      <path d="M116.05,14.17 L705.82,14.17 L705.82,494.42 L116.05,494.42 z"/>
    </clipPath>
    <clipPath id="Clip_80">
      <path d="M116.05,14.17 L705.82,14.17 L705.82,494.42 L116.05,494.42 z"/>
    </clipPath>
    <clipPath id="Clip_81">
      <path d="M116.05,14.17 L705.82,14.17 L705.82,494.42 L116.05,494.42 z"/>
    </clipPath>
    <clipPath id="Clip_82">
      <path d="M116.05,14.17 L705.82,14.17 L705.82,494.42 L116.05,494.42 z"/>
    </clipPath>
    <clipPath id="Clip_83">
      <path d="M116.05,14.17 L705.82,14.17 L705.82,494.42 L116.05,494.42 z"/>
    </clipPath>
    <clipPath id="Clip_84">
      <path d="M116.05,14.17 L705.82,14.17 L705.82,494.42 L116.05,494.42 z"/>
    </clipPath>
    <clipPath id="Clip_85">
      <path d="M116.05,14.17 L705.82,14.17 L705.82,494.42 L116.05,494.42 z"/>
    </clipPath>
    <clipPath id="Clip_86">
      <path d="M116.05,14.17 L705.82,14.17 L705.82,494.42 L116.05,494.42 z"/>
    </clipPath>
    <clipPath id="Clip_87">
      <path d="M116.05,14.17 L705.82,14.17 L705.82,494.42 L116.05,494.42 z"/>
    </clipPath>
    <clipPath id="Clip_88">
      <path d="M116.05,14.17 L705.82,14.17 L705.82,494.42 L116.05,494.42 z"/>
    </clipPath>
    <clipPath id="Clip_89">
      <path d="M116.05,14.17 L705.82,14.17 L705.82,494.42 L116.05,494.42 z"/>
    </clipPath>
    <clipPath id="Clip_90">
      <path d="M116.05,14.17 L705.82,14.17 L705.82,494.42 L116.05,494.42 z"/>
    </clipPath>
    <clipPath id="Clip_91">
      <path d="M116.05,14.17 L705.82,14.17 L705.82,494.42 L116.05,494.42 z"/>
    </clipPath>
    <clipPath id="Clip_92">
      <path d="M116.05,14.17 L705.82,14.17 L705.82,494.42 L116.05,494.42 z"/>
    </clipPath>
    <clipPath id="Clip_93">
      <path d="M116.05,14.17 L705.82,14.17 L705.82,494.42 L116.05,494.42 z"/>
    </clipPath>
    <clipPath id="Clip_94">
      <path d="M116.05,14.17 L705.82,14.17 L705.82,494.42 L116.05,494.42 z"/>
    </clipPath>
    <clipPath id="Clip_95">
      <path d="M116.05,14.17 L705.82,14.17 L705.82,494.42 L116.05,494.42 z"/>
    </clipPath>
    <clipPath id="Clip_96">
      <path d="M116.05,14.17 L705.82,14.17 L705.82,494.42 L116.05,494.42 z"/>
    </clipPath>
    <clipPath id="Clip_97">
      <path d="M116.05,14.17 L705.82,14.17 L705.82,494.42 L116.05,494.42 z"/>
    </clipPath>
    <clipPath id="Clip_98">
      <path d="M116.05,14.17 L705.82,14.17 L705.82,494.42 L116.05,494.42 z"/>
    </clipPath>
    <clipPath id="Clip_99">
      <path d="M116.05,14.17 L705.82,14.17 L705.82,494.42 L116.05,494.42 z"/>
    </clipPath>
    <clipPath id="Clip_100">
      <path d="M116.05,14.17 L705.82,14.17 L705.82,494.42 L116.05,494.42 z"/>
    </clipPath>
    <clipPath id="Clip_101">
      <path d="M116.05,14.17 L705.82,14.17 L705.82,494.42 L116.05,494.42 z"/>
    </clipPath>
    <clipPath id="Clip_102">
      <path d="M116.05,14.17 L705.82,14.17 L705.82,494.42 L116.05,494.42 z"/>
    </clipPath>
    <clipPath id="Clip_103">
      <path d="M116.05,14.17 L705.82,14.17 L705.82,494.42 L116.05,494.42 z"/>
    </clipPath>
    <clipPath id="Clip_104">
      <path d="M116.05,14.17 L705.82,14.17 L705.82,494.42 L116.05,494.42 z"/>
    </clipPath>
    <clipPath id="Clip_105">
      <path d="M116.05,14.17 L705.82,14.17 L705.82,494.42 L116.05,494.42 z"/>
    </clipPath>
    <clipPath id="Clip_106">
      <path d="M116.05,14.17 L705.82,14.17 L705.82,494.42 L116.05,494.42 z"/>
    </clipPath>
    <clipPath id="Clip_107">
      <path d="M116.05,14.17 L705.82,14.17 L705.82,494.42 L116.05,494.42 z"/>
    </clipPath>
    <clipPath id="Clip_108">
      <path d="M116.05,14.17 L705.82,14.17 L705.82,494.42 L116.05,494.42 z"/>
    </clipPath>
    <clipPath id="Clip_109">
      <path d="M116.05,14.17 L705.82,14.17 L705.82,494.42 L116.05,494.42 z"/>
    </clipPath>
    <clipPath id="Clip_110">
      <path d="M116.05,14.17 L705.82,14.17 L705.82,494.42 L116.05,494.42 z"/>
    </clipPath>
    <clipPath id="Clip_111">
      <path d="M116.05,14.17 L705.82,14.17 L705.82,494.42 L116.05,494.42 z"/>
    </clipPath>
    <clipPath id="Clip_112">
      <path d="M116.05,14.17 L705.82,14.17 L705.82,494.42 L116.05,494.42 z"/>
    </clipPath>
    <clipPath id="Clip_113">
      <path d="M116.05,14.17 L705.82,14.17 L705.82,494.42 L116.05,494.42 z"/>
    </clipPath>
    <clipPath id="Clip_114">
      <path d="M116.05,14.17 L705.82,14.17 L705.82,494.42 L116.05,494.42 z"/>
    </clipPath>
    <clipPath id="Clip_115">
      <path d="M116.05,14.17 L705.82,14.17 L705.82,494.42 L116.05,494.42 z"/>
    </clipPath>
    <clipPath id="Clip_116">
      <path d="M116.05,14.17 L705.82,14.17 L705.82,494.42 L116.05,494.42 z"/>
    </clipPath>
    <clipPath id="Clip_117">
      <path d="M116.05,14.17 L705.82,14.17 L705.82,494.42 L116.05,494.42 z"/>
    </clipPath>
    <clipPath id="Clip_118">
      <path d="M116.05,14.17 L705.82,14.17 L705.82,494.42 L116.05,494.42 z"/>
    </clipPath>
    <clipPath id="Clip_119">
      <path d="M116.05,14.17 L705.82,14.17 L705.82,494.42 L116.05,494.42 z"/>
    </clipPath>
    <clipPath id="Clip_120">
      <path d="M116.05,14.17 L705.82,14.17 L705.82,494.42 L116.05,494.42 z"/>
    </clipPath>
    <clipPath id="Clip_121">
      <path d="M116.05,14.17 L705.82,14.17 L705.82,494.42 L116.05,494.42 z"/>
    </clipPath>
    <clipPath id="Clip_122">
      <path d="M116.05,14.17 L705.82,14.17 L705.82,494.42 L116.05,494.42 z"/>
    </clipPath>
    <clipPath id="Clip_123">
      <path d="M116.05,14.17 L705.82,14.17 L705.82,494.42 L116.05,494.42 z"/>
    </clipPath>
    <clipPath id="Clip_124">
      <path d="M116.05,14.17 L705.82,14.17 L705.82,494.42 L116.05,494.42 z"/>
    </clipPath>
    <clipPath id="Clip_125">
      <path d="M116.05,14.17 L705.82,14.17 L705.82,494.42 L116.05,494.42 z"/>
    </clipPath>
    <clipPath id="Clip_126">
      <path d="M116.05,14.17 L705.82,14.17 L705.82,494.42 L116.05,494.42 z"/>
    </clipPath>
    <clipPath id="Clip_127">
      <path d="M0,0 L720,0 L720,576 L0,576 z"/>
    </clipPath>
    <clipPath id="Clip_128">
      <path d="M0,0 L720,0 L720,576 L0,576 z"/>
    </clipPath>
    <clipPath id="Clip_129">
      <path d="M0,0 L720,0 L720,576 L0,576 z"/>
    </clipPath>
    <clipPath id="Clip_130">
      <path d="M0,0 L720,0 L720,576 L0,576 z"/>
    </clipPath>
    <clipPath id="Clip_131">
      <path d="M0,0 L720,0 L720,576 L0,576 z"/>
    </clipPath>
    <clipPath id="Clip_132">
      <path d="M0,0 L720,0 L720,576 L0,576 z"/>
    </clipPath>
    <clipPath id="Clip_133">
      <path d="M0,0 L720,0 L720,576 L0,576 z"/>
    </clipPath>
    <clipPath id="Clip_134">
      <path d="M0,0 L720,0 L720,576 L0,576 z"/>
    </clipPath>
    <clipPath id="Clip_135">
      <path d="M0,0 L720,0 L720,576 L0,576 z"/>
    </clipPath>
    <clipPath id="Clip_136">
      <path d="M0,0 L720,0 L720,576 L0,576 z"/>
    </clipPath>
    <clipPath id="Clip_137">
      <path d="M0,0 L720,0 L720,576 L0,576 z"/>
    </clipPath>
    <clipPath id="Clip_138">
      <path d="M0,0 L720,0 L720,576 L0,576 z"/>
    </clipPath>
    <clipPath id="Clip_139">
      <path d="M0,0 L720,0 L720,576 L0,576 z"/>
    </clipPath>
    <clipPath id="Clip_140">
      <path d="M0,0 L720,0 L720,576 L0,576 z"/>
    </clipPath>
    <clipPath id="Clip_141">
      <path d="M0,0 L720,0 L720,576 L0,576 z"/>
    </clipPath>
    <clipPath id="Clip_142">
      <path d="M0,0 L720,0 L720,576 L0,576 z"/>
    </clipPath>
    <clipPath id="Clip_143">
      <path d="M0,0 L720,0 L720,576 L0,576 z"/>
    </clipPath>
    <clipPath id="Clip_144">
      <path d="M0,0 L720,0 L720,576 L0,576 z"/>
    </clipPath>
    <clipPath id="Clip_145">
      <path d="M0,0 L720,0 L720,576 L0,576 z"/>
    </clipPath>
    <clipPath id="Clip_146">
      <path d="M0,0 L720,0 L720,576 L0,576 z"/>
    </clipPath>
    <clipPath id="Clip_147">
      <path d="M0,0 L720,0 L720,576 L0,576 z"/>
    </clipPath>
    <clipPath id="Clip_148">
      <path d="M0,0 L720,0 L720,576 L0,576 z"/>
    </clipPath>
    <clipPath id="Clip_149">
      <path d="M0,0 L720,0 L720,576 L0,576 z"/>
    </clipPath>
    <clipPath id="Clip_150">
      <path d="M0,0 L720,0 L720,576 L0,576 z"/>
    </clipPath>
  </defs>
  <g id="Layer_1">
    <g>
      <path d="M0,0 L1,0 L1,1 L0,1 z" fill="#FFFFFF"/>
      <path d="M0,0 L1,0 L1,1 L0,1 z" fill-opacity="0" stroke="#000000" stroke-width="1" stroke-linecap="round" stroke-linejoin="round" stroke-miterlimit="10"/>
    </g>
    <path d="M153.58,480.83 L282.26,480.83" fill-opacity="0" stroke="#F0F0F0" stroke-width="1" stroke-linejoin="round" stroke-miterlimit="10"/>
    <path d="M178.6,458.18 L435.96,458.18" fill-opacity="0" stroke="#F0F0F0" stroke-width="1" stroke-linejoin="round" stroke-miterlimit="10"/>
    <path d="M228.65,435.53 L396.64,435.53" fill-opacity="0" stroke="#F0F0F0" stroke-width="1" stroke-linejoin="round" stroke-miterlimit="10"/>
    <path d="M196.48,412.87 L432.39,412.87" fill-opacity="0" stroke="#F0F0F0" stroke-width="1" stroke-linejoin="round" stroke-miterlimit="10"/>
    <path d="M260.82,390.22 L378.77,390.22" fill-opacity="0" stroke="#F0F0F0" stroke-width="1" stroke-linejoin="round" stroke-miterlimit="10"/>
    <path d="M282.26,367.57 L432.39,367.57" fill-opacity="0" stroke="#F0F0F0" stroke-width="1" stroke-linejoin="round" stroke-miterlimit="10"/>
    <path d="M332.3,344.91 L396.64,344.91" fill-opacity="0" stroke="#F0F0F0" stroke-width="1" stroke-linejoin="round" stroke-miterlimit="10"/>
    <path d="M282.26,322.26 L446.68,322.26" fill-opacity="0" stroke="#F0F0F0" stroke-width="1" stroke-linejoin="round" stroke-miterlimit="10"/>
    <path d="M328.73,299.61 L414.51,299.61" fill-opacity="0" stroke="#F0F0F0" stroke-width="1" stroke-linejoin="round" stroke-miterlimit="10"/>
    <path d="M346.6,276.95 L418.09,276.95" fill-opacity="0" stroke="#F0F0F0" stroke-width="1" stroke-linejoin="round" stroke-miterlimit="10"/>
    <path d="M310.86,254.3 L453.83,254.3" fill-opacity="0" stroke="#F0F0F0" stroke-width="1" stroke-linejoin="round" stroke-miterlimit="10"/>
    <path d="M332.3,231.65 L450.26,231.65" fill-opacity="0" stroke="#F0F0F0" stroke-width="1" stroke-linejoin="round" stroke-miterlimit="10"/>
    <path d="M310.86,208.99 L496.72,208.99" fill-opacity="0" stroke="#F0F0F0" stroke-width="1" stroke-linejoin="round" stroke-miterlimit="10"/>
    <path d="M350.18,186.34 L471.7,186.34" fill-opacity="0" stroke="#F0F0F0" stroke-width="1" stroke-linejoin="round" stroke-miterlimit="10"/>
    <path d="M339.45,163.69 L503.87,163.69" fill-opacity="0" stroke="#F0F0F0" stroke-width="1" stroke-linejoin="round" stroke-miterlimit="10"/>
    <path d="M339.45,141.03 L528.89,141.03" fill-opacity="0" stroke="#F0F0F0" stroke-width="1" stroke-linejoin="round" stroke-miterlimit="10"/>
    <path d="M368.05,118.38 L500.3,118.38" fill-opacity="0" stroke="#F0F0F0" stroke-width="1" stroke-linejoin="round" stroke-miterlimit="10"/>
    <path d="M393.07,95.73 L500.3,95.73" fill-opacity="0" stroke="#F0F0F0" stroke-width="1" stroke-linejoin="round" stroke-miterlimit="10"/>
    <path d="M425.24,73.07 L511.02,73.07" fill-opacity="0" stroke="#F0F0F0" stroke-width="1" stroke-linejoin="round" stroke-miterlimit="10"/>
    <path d="M421.66,50.42 L525.32,50.42" fill-opacity="0" stroke="#F0F0F0" stroke-width="1" stroke-linejoin="round" stroke-miterlimit="10"/>
    <path d="M439.53,27.77 L568.21,27.77" fill-opacity="0" stroke="#F0F0F0" stroke-width="1" stroke-linejoin="round" stroke-miterlimit="10"/>
    <g>
      <path d="M317.62,208.99 C317.62,212.723 314.593,215.75 310.86,215.75 C307.127,215.75 304.1,212.723 304.1,208.99 C304.1,205.257 307.127,202.23 310.86,202.23 C314.593,202.23 317.62,205.257 317.62,208.99 z" fill="#5AB4AC"/>
      <path d="M317.62,208.99 C317.62,212.723 314.593,215.75 310.86,215.75 C307.127,215.75 304.1,212.723 304.1,208.99 C304.1,205.257 307.127,202.23 310.86,202.23 C314.593,202.23 317.62,205.257 317.62,208.99 z" fill-opacity="0" stroke="#5AB4AC" stroke-width="1" stroke-linecap="round" stroke-linejoin="round" stroke-miterlimit="10"/>
    </g>
    <g>
      <path d="M346.21,141.03 C346.21,144.763 343.183,147.79 339.45,147.79 C335.717,147.79 332.69,144.763 332.69,141.03 C332.69,137.297 335.717,134.27 339.45,134.27 C343.183,134.27 346.21,137.297 346.21,141.03 z" fill="#5AB4AC"/>
      <path d="M346.21,141.03 C346.21,144.763 343.183,147.79 339.45,147.79 C335.717,147.79 332.69,144.763 332.69,141.03 C332.69,137.297 335.717,134.27 339.45,134.27 C343.183,134.27 346.21,137.297 346.21,141.03 z" fill-opacity="0" stroke="#5AB4AC" stroke-width="1" stroke-linecap="round" stroke-linejoin="round" stroke-miterlimit="10"/>
    </g>
    <g>
      <path d="M432,73.07 C432,76.803 428.973,79.83 425.24,79.83 C421.507,79.83 418.48,76.803 418.48,73.07 C418.48,69.337 421.507,66.31 425.24,66.31 C428.973,66.31 432,69.337 432,73.07 z" fill="#5AB4AC"/>
      <path d="M432,73.07 C432,76.803 428.973,79.83 425.24,79.83 C421.507,79.83 418.48,76.803 418.48,73.07 C418.48,69.337 421.507,66.31 425.24,66.31 C428.973,66.31 432,69.337 432,73.07 z" fill-opacity="0" stroke="#5AB4AC" stroke-width="1" stroke-linecap="round" stroke-linejoin="round" stroke-miterlimit="10"/>
    </g>
    <g>
      <path d="M339.06,231.65 C339.06,235.383 336.033,238.41 332.3,238.41 C328.567,238.41 325.54,235.383 325.54,231.65 C325.54,227.917 328.567,224.89 332.3,224.89 C336.033,224.89 339.06,227.917 339.06,231.65 z" fill="#5AB4AC"/>
      <path d="M339.06,231.65 C339.06,235.383 336.033,238.41 332.3,238.41 C328.567,238.41 325.54,235.383 325.54,231.65 C325.54,227.917 328.567,224.89 332.3,224.89 C336.033,224.89 339.06,227.917 339.06,231.65 z" fill-opacity="0" stroke="#5AB4AC" stroke-width="1" stroke-linecap="round" stroke-linejoin="round" stroke-miterlimit="10"/>
    </g>
    <g>
      <path d="M399.83,95.73 C399.83,99.463 396.803,102.49 393.07,102.49 C389.337,102.49 386.31,99.463 386.31,95.73 C386.31,91.997 389.337,88.97 393.07,88.97 C396.803,88.97 399.83,91.997 399.83,95.73 z" fill="#5AB4AC"/>
      <path d="M399.83,95.73 C399.83,99.463 396.803,102.49 393.07,102.49 C389.337,102.49 386.31,99.463 386.31,95.73 C386.31,91.997 389.337,88.97 393.07,88.97 C396.803,88.97 399.83,91.997 399.83,95.73 z" fill-opacity="0" stroke="#5AB4AC" stroke-width="1" stroke-linecap="round" stroke-linejoin="round" stroke-miterlimit="10"/>
    </g>
    <g>
      <path d="M160.34,480.83 C160.34,484.563 157.313,487.59 153.58,487.59 C149.847,487.59 146.82,484.563 146.82,480.83 C146.82,477.097 149.847,474.07 153.58,474.07 C157.313,474.07 160.34,477.097 160.34,480.83 z" fill="#5AB4AC"/>
      <path d="M160.34,480.83 C160.34,484.563 157.313,487.59 153.58,487.59 C149.847,487.59 146.82,484.563 146.82,480.83 C146.82,477.097 149.847,474.07 153.58,474.07 C157.313,474.07 160.34,477.097 160.34,480.83 z" fill-opacity="0" stroke="#5AB4AC" stroke-width="1" stroke-linecap="round" stroke-linejoin="round" stroke-miterlimit="10"/>
    </g>
    <g>
      <path d="M185.36,458.18 C185.36,461.913 182.333,464.94 178.6,464.94 C174.867,464.94 171.84,461.913 171.84,458.18 C171.84,454.447 174.867,451.42 178.6,451.42 C182.333,451.42 185.36,454.447 185.36,458.18 z" fill="#5AB4AC"/>
      <path d="M185.36,458.18 C185.36,461.913 182.333,464.94 178.6,464.94 C174.867,464.94 171.84,461.913 171.84,458.18 C171.84,454.447 174.867,451.42 178.6,451.42 C182.333,451.42 185.36,454.447 185.36,458.18 z" fill-opacity="0" stroke="#5AB4AC" stroke-width="1" stroke-linecap="round" stroke-linejoin="round" stroke-miterlimit="10"/>
    </g>
    <g>
      <path d="M353.36,276.95 C353.36,280.683 350.333,283.71 346.6,283.71 C342.867,283.71 339.84,280.683 339.84,276.95 C339.84,273.217 342.867,270.19 346.6,270.19 C350.333,270.19 353.36,273.217 353.36,276.95 z" fill="#5AB4AC"/>
      <path d="M353.36,276.95 C353.36,280.683 350.333,283.71 346.6,283.71 C342.867,283.71 339.84,280.683 339.84,276.95 C339.84,273.217 342.867,270.19 346.6,270.19 C350.333,270.19 353.36,273.217 353.36,276.95 z" fill-opacity="0" stroke="#5AB4AC" stroke-width="1" stroke-linecap="round" stroke-linejoin="round" stroke-miterlimit="10"/>
    </g>
    <g>
      <path d="M317.62,254.3 C317.62,258.033 314.593,261.06 310.86,261.06 C307.127,261.06 304.1,258.033 304.1,254.3 C304.1,250.567 307.127,247.54 310.86,247.54 C314.593,247.54 317.62,250.567 317.62,254.3 z" fill="#5AB4AC"/>
      <path d="M317.62,254.3 C317.62,258.033 314.593,261.06 310.86,261.06 C307.127,261.06 304.1,258.033 304.1,254.3 C304.1,250.567 307.127,247.54 310.86,247.54 C314.593,247.54 317.62,250.567 317.62,254.3 z" fill-opacity="0" stroke="#5AB4AC" stroke-width="1" stroke-linecap="round" stroke-linejoin="round" stroke-miterlimit="10"/>
    </g>
    <g>
      <path d="M339.06,344.91 C339.06,348.643 336.033,351.67 332.3,351.67 C328.567,351.67 325.54,348.643 325.54,344.91 C325.54,341.177 328.567,338.15 332.3,338.15 C336.033,338.15 339.06,341.177 339.06,344.91 z" fill="#5AB4AC"/>
      <path d="M339.06,344.91 C339.06,348.643 336.033,351.67 332.3,351.67 C328.567,351.67 325.54,348.643 325.54,344.91 C325.54,341.177 328.567,338.15 332.3,338.15 C336.033,338.15 339.06,341.177 339.06,344.91 z" fill-opacity="0" stroke="#5AB4AC" stroke-width="1" stroke-linecap="round" stroke-linejoin="round" stroke-miterlimit="10"/>
    </g>
    <g>
      <path d="M203.24,412.87 C203.24,416.603 200.213,419.63 196.48,419.63 C192.747,419.63 189.72,416.603 189.72,412.87 C189.72,409.137 192.747,406.11 196.48,406.11 C200.213,406.11 203.24,409.137 203.24,412.87 z" fill="#5AB4AC"/>
      <path d="M203.24,412.87 C203.24,416.603 200.213,419.63 196.48,419.63 C192.747,419.63 189.72,416.603 189.72,412.87 C189.72,409.137 192.747,406.11 196.48,406.11 C200.213,406.11 203.24,409.137 203.24,412.87 z" fill-opacity="0" stroke="#5AB4AC" stroke-width="1" stroke-linecap="round" stroke-linejoin="round" stroke-miterlimit="10"/>
    </g>
    <g>
      <path d="M446.29,27.77 C446.29,31.503 443.263,34.53 439.53,34.53 C435.797,34.53 432.77,31.503 432.77,27.77 C432.77,24.037 435.797,21.01 439.53,21.01 C443.263,21.01 446.29,24.037 446.29,27.77 z" fill="#5AB4AC"/>
      <path d="M446.29,27.77 C446.29,31.503 443.263,34.53 439.53,34.53 C435.797,34.53 432.77,31.503 432.77,27.77 C432.77,24.037 435.797,21.01 439.53,21.01 C443.263,21.01 446.29,24.037 446.29,27.77 z" fill-opacity="0" stroke="#5AB4AC" stroke-width="1" stroke-linecap="round" stroke-linejoin="round" stroke-miterlimit="10"/>
    </g>
    <g>
      <path d="M428.42,50.42 C428.42,54.153 425.393,57.18 421.66,57.18 C417.927,57.18 414.9,54.153 414.9,50.42 C414.9,46.687 417.927,43.66 421.66,43.66 C425.393,43.66 428.42,46.687 428.42,50.42 z" fill="#5AB4AC"/>
      <path d="M428.42,50.42 C428.42,54.153 425.393,57.18 421.66,57.18 C417.927,57.18 414.9,54.153 414.9,50.42 C414.9,46.687 417.927,43.66 421.66,43.66 C425.393,43.66 428.42,46.687 428.42,50.42 z" fill-opacity="0" stroke="#5AB4AC" stroke-width="1" stroke-linecap="round" stroke-linejoin="round" stroke-miterlimit="10"/>
    </g>
    <g>
      <path d="M289.02,322.26 C289.02,325.993 285.993,329.02 282.26,329.02 C278.527,329.02 275.5,325.993 275.5,322.26 C275.5,318.527 278.527,315.5 282.26,315.5 C285.993,315.5 289.02,318.527 289.02,322.26 z" fill="#5AB4AC"/>
      <path d="M289.02,322.26 C289.02,325.993 285.993,329.02 282.26,329.02 C278.527,329.02 275.5,325.993 275.5,322.26 C275.5,318.527 278.527,315.5 282.26,315.5 C285.993,315.5 289.02,318.527 289.02,322.26 z" fill-opacity="0" stroke="#5AB4AC" stroke-width="1" stroke-linecap="round" stroke-linejoin="round" stroke-miterlimit="10"/>
    </g>
    <g>
      <path d="M374.81,118.38 C374.81,122.113 371.783,125.14 368.05,125.14 C364.317,125.14 361.29,122.113 361.29,118.38 C361.29,114.647 364.317,111.62 368.05,111.62 C371.783,111.62 374.81,114.647 374.81,118.38 z" fill="#5AB4AC"/>
      <path d="M374.81,118.38 C374.81,122.113 371.783,125.14 368.05,125.14 C364.317,125.14 361.29,122.113 361.29,118.38 C361.29,114.647 364.317,111.62 368.05,111.62 C371.783,111.62 374.81,114.647 374.81,118.38 z" fill-opacity="0" stroke="#5AB4AC" stroke-width="1" stroke-linecap="round" stroke-linejoin="round" stroke-miterlimit="10"/>
    </g>
    <g>
      <path d="M335.49,299.61 C335.49,303.343 332.463,306.37 328.73,306.37 C324.997,306.37 321.97,303.343 321.97,299.61 C321.97,295.877 324.997,292.85 328.73,292.85 C332.463,292.85 335.49,295.877 335.49,299.61 z" fill="#5AB4AC"/>
      <path d="M335.49,299.61 C335.49,303.343 332.463,306.37 328.73,306.37 C324.997,306.37 321.97,303.343 321.97,299.61 C321.97,295.877 324.997,292.85 328.73,292.85 C332.463,292.85 335.49,295.877 335.49,299.61 z" fill-opacity="0" stroke="#5AB4AC" stroke-width="1" stroke-linecap="round" stroke-linejoin="round" stroke-miterlimit="10"/>
    </g>
    <g>
      <path d="M346.21,163.69 C346.21,167.423 343.183,170.45 339.45,170.45 C335.717,170.45 332.69,167.423 332.69,163.69 C332.69,159.957 335.717,156.93 339.45,156.93 C343.183,156.93 346.21,159.957 346.21,163.69 z" fill="#5AB4AC"/>
      <path d="M346.21,163.69 C346.21,167.423 343.183,170.45 339.45,170.45 C335.717,170.45 332.69,167.423 332.69,163.69 C332.69,159.957 335.717,156.93 339.45,156.93 C343.183,156.93 346.21,159.957 346.21,163.69 z" fill-opacity="0" stroke="#5AB4AC" stroke-width="1" stroke-linecap="round" stroke-linejoin="round" stroke-miterlimit="10"/>
    </g>
    <g>
      <path d="M235.41,435.53 C235.41,439.263 232.383,442.29 228.65,442.29 C224.917,442.29 221.89,439.263 221.89,435.53 C221.89,431.797 224.917,428.77 228.65,428.77 C232.383,428.77 235.41,431.797 235.41,435.53 z" fill="#5AB4AC"/>
      <path d="M235.41,435.53 C235.41,439.263 232.383,442.29 228.65,442.29 C224.917,442.29 221.89,439.263 221.89,435.53 C221.89,431.797 224.917,428.77 228.65,428.77 C232.383,428.77 235.41,431.797 235.41,435.53 z" fill-opacity="0" stroke="#5AB4AC" stroke-width="1" stroke-linecap="round" stroke-linejoin="round" stroke-miterlimit="10"/>
    </g>
    <g>
      <path d="M356.94,186.34 C356.94,190.073 353.913,193.1 350.18,193.1 C346.447,193.1 343.42,190.073 343.42,186.34 C343.42,182.607 346.447,179.58 350.18,179.58 C353.913,179.58 356.94,182.607 356.94,186.34 z" fill="#5AB4AC"/>
      <path d="M356.94,186.34 C356.94,190.073 353.913,193.1 350.18,193.1 C346.447,193.1 343.42,190.073 343.42,186.34 C343.42,182.607 346.447,179.58 350.18,179.58 C353.913,179.58 356.94,182.607 356.94,186.34 z" fill-opacity="0" stroke="#5AB4AC" stroke-width="1" stroke-linecap="round" stroke-linejoin="round" stroke-miterlimit="10"/>
    </g>
    <g>
      <path d="M267.58,390.22 C267.58,393.953 264.553,396.98 260.82,396.98 C257.087,396.98 254.06,393.953 254.06,390.22 C254.06,386.487 257.087,383.46 260.82,383.46 C264.553,383.46 267.58,386.487 267.58,390.22 z" fill="#5AB4AC"/>
      <path d="M267.58,390.22 C267.58,393.953 264.553,396.98 260.82,396.98 C257.087,396.98 254.06,393.953 254.06,390.22 C254.06,386.487 257.087,383.46 260.82,383.46 C264.553,383.46 267.58,386.487 267.58,390.22 z" fill-opacity="0" stroke="#5AB4AC" stroke-width="1" stroke-linecap="round" stroke-linejoin="round" stroke-miterlimit="10"/>
    </g>
    <g>
      <path d="M289.02,367.57 C289.02,371.303 285.993,374.33 282.26,374.33 C278.527,374.33 275.5,371.303 275.5,367.57 C275.5,363.837 278.527,360.81 282.26,360.81 C285.993,360.81 289.02,363.837 289.02,367.57 z" fill="#5AB4AC"/>
      <path d="M289.02,367.57 C289.02,371.303 285.993,374.33 282.26,374.33 C278.527,374.33 275.5,371.303 275.5,367.57 C275.5,363.837 278.527,360.81 282.26,360.81 C285.993,360.81 289.02,363.837 289.02,367.57 z" fill-opacity="0" stroke="#5AB4AC" stroke-width="1" stroke-linecap="round" stroke-linejoin="round" stroke-miterlimit="10"/>
    </g>
    <g>
      <path d="M503.48,208.99 C503.48,212.723 500.453,215.75 496.72,215.75 C492.987,215.75 489.96,212.723 489.96,208.99 C489.96,205.257 492.987,202.23 496.72,202.23 C500.453,202.23 503.48,205.257 503.48,208.99 z" fill="#D8B365"/>
      <path d="M503.48,208.99 C503.48,212.723 500.453,215.75 496.72,215.75 C492.987,215.75 489.96,212.723 489.96,208.99 C489.96,205.257 492.987,202.23 496.72,202.23 C500.453,202.23 503.48,205.257 503.48,208.99 z" fill-opacity="0" stroke="#D8B365" stroke-width="1" stroke-linecap="round" stroke-linejoin="round" stroke-miterlimit="10"/>
    </g>
    <g>
      <path d="M535.65,141.03 C535.65,144.763 532.623,147.79 528.89,147.79 C525.157,147.79 522.13,144.763 522.13,141.03 C522.13,137.297 525.157,134.27 528.89,134.27 C532.623,134.27 535.65,137.297 535.65,141.03 z" fill="#D8B365"/>
      <path d="M535.65,141.03 C535.65,144.763 532.623,147.79 528.89,147.79 C525.157,147.79 522.13,144.763 522.13,141.03 C522.13,137.297 525.157,134.27 528.89,134.27 C532.623,134.27 535.65,137.297 535.65,141.03 z" fill-opacity="0" stroke="#D8B365" stroke-width="1" stroke-linecap="round" stroke-linejoin="round" stroke-miterlimit="10"/>
    </g>
    <g>
      <path d="M517.78,73.07 C517.78,76.803 514.753,79.83 511.02,79.83 C507.287,79.83 504.26,76.803 504.26,73.07 C504.26,69.337 507.287,66.31 511.02,66.31 C514.753,66.31 517.78,69.337 517.78,73.07 z" fill="#D8B365"/>
      <path d="M517.78,73.07 C517.78,76.803 514.753,79.83 511.02,79.83 C507.287,79.83 504.26,76.803 504.26,73.07 C504.26,69.337 507.287,66.31 511.02,66.31 C514.753,66.31 517.78,69.337 517.78,73.07 z" fill-opacity="0" stroke="#D8B365" stroke-width="1" stroke-linecap="round" stroke-linejoin="round" stroke-miterlimit="10"/>
    </g>
    <g>
      <path d="M457.02,231.65 C457.02,235.383 453.993,238.41 450.26,238.41 C446.527,238.41 443.5,235.383 443.5,231.65 C443.5,227.917 446.527,224.89 450.26,224.89 C453.993,224.89 457.02,227.917 457.02,231.65 z" fill="#D8B365"/>
      <path d="M457.02,231.65 C457.02,235.383 453.993,238.41 450.26,238.41 C446.527,238.41 443.5,235.383 443.5,231.65 C443.5,227.917 446.527,224.89 450.26,224.89 C453.993,224.89 457.02,227.917 457.02,231.65 z" fill-opacity="0" stroke="#D8B365" stroke-width="1" stroke-linecap="round" stroke-linejoin="round" stroke-miterlimit="10"/>
    </g>
    <g>
      <path d="M507.06,95.73 C507.06,99.463 504.033,102.49 500.3,102.49 C496.567,102.49 493.54,99.463 493.54,95.73 C493.54,91.997 496.567,88.97 500.3,88.97 C504.033,88.97 507.06,91.997 507.06,95.73 z" fill="#D8B365"/>
      <path d="M507.06,95.73 C507.06,99.463 504.033,102.49 500.3,102.49 C496.567,102.49 493.54,99.463 493.54,95.73 C493.54,91.997 496.567,88.97 500.3,88.97 C504.033,88.97 507.06,91.997 507.06,95.73 z" fill-opacity="0" stroke="#D8B365" stroke-width="1" stroke-linecap="round" stroke-linejoin="round" stroke-miterlimit="10"/>
    </g>
    <g>
      <path d="M289.02,480.83 C289.02,484.563 285.993,487.59 282.26,487.59 C278.527,487.59 275.5,484.563 275.5,480.83 C275.5,477.097 278.527,474.07 282.26,474.07 C285.993,474.07 289.02,477.097 289.02,480.83 z" fill="#D8B365"/>
      <path d="M289.02,480.83 C289.02,484.563 285.993,487.59 282.26,487.59 C278.527,487.59 275.5,484.563 275.5,480.83 C275.5,477.097 278.527,474.07 282.26,474.07 C285.993,474.07 289.02,477.097 289.02,480.83 z" fill-opacity="0" stroke="#D8B365" stroke-width="1" stroke-linecap="round" stroke-linejoin="round" stroke-miterlimit="10"/>
    </g>
    <g>
      <path d="M442.72,458.18 C442.72,461.913 439.693,464.94 435.96,464.94 C432.227,464.94 429.2,461.913 429.2,458.18 C429.2,454.447 432.227,451.42 435.96,451.42 C439.693,451.42 442.72,454.447 442.72,458.18 z" fill="#D8B365"/>
      <path d="M442.72,458.18 C442.72,461.913 439.693,464.94 435.96,464.94 C432.227,464.94 429.2,461.913 429.2,458.18 C429.2,454.447 432.227,451.42 435.96,451.42 C439.693,451.42 442.72,454.447 442.72,458.18 z" fill-opacity="0" stroke="#D8B365" stroke-width="1" stroke-linecap="round" stroke-linejoin="round" stroke-miterlimit="10"/>
    </g>
    <g>
      <path d="M424.85,276.95 C424.85,280.683 421.823,283.71 418.09,283.71 C414.357,283.71 411.33,280.683 411.33,276.95 C411.33,273.217 414.357,270.19 418.09,270.19 C421.823,270.19 424.85,273.217 424.85,276.95 z" fill="#D8B365"/>
      <path d="M424.85,276.95 C424.85,280.683 421.823,283.71 418.09,283.71 C414.357,283.71 411.33,280.683 411.33,276.95 C411.33,273.217 414.357,270.19 418.09,270.19 C421.823,270.19 424.85,273.217 424.85,276.95 z" fill-opacity="0" stroke="#D8B365" stroke-width="1" stroke-linecap="round" stroke-linejoin="round" stroke-miterlimit="10"/>
    </g>
    <g>
      <path d="M460.59,254.3 C460.59,258.033 457.563,261.06 453.83,261.06 C450.097,261.06 447.07,258.033 447.07,254.3 C447.07,250.567 450.097,247.54 453.83,247.54 C457.563,247.54 460.59,250.567 460.59,254.3 z" fill="#D8B365"/>
      <path d="M460.59,254.3 C460.59,258.033 457.563,261.06 453.83,261.06 C450.097,261.06 447.07,258.033 447.07,254.3 C447.07,250.567 450.097,247.54 453.83,247.54 C457.563,247.54 460.59,250.567 460.59,254.3 z" fill-opacity="0" stroke="#D8B365" stroke-width="1" stroke-linecap="round" stroke-linejoin="round" stroke-miterlimit="10"/>
    </g>
    <g>
      <path d="M403.4,344.91 C403.4,348.643 400.373,351.67 396.64,351.67 C392.907,351.67 389.88,348.643 389.88,344.91 C389.88,341.177 392.907,338.15 396.64,338.15 C400.373,338.15 403.4,341.177 403.4,344.91 z" fill="#D8B365"/>
      <path d="M403.4,344.91 C403.4,348.643 400.373,351.67 396.64,351.67 C392.907,351.67 389.88,348.643 389.88,344.91 C389.88,341.177 392.907,338.15 396.64,338.15 C400.373,338.15 403.4,341.177 403.4,344.91 z" fill-opacity="0" stroke="#D8B365" stroke-width="1" stroke-linecap="round" stroke-linejoin="round" stroke-miterlimit="10"/>
    </g>
    <g>
      <path d="M439.15,412.87 C439.15,416.603 436.123,419.63 432.39,419.63 C428.657,419.63 425.63,416.603 425.63,412.87 C425.63,409.137 428.657,406.11 432.39,406.11 C436.123,406.11 439.15,409.137 439.15,412.87 z" fill="#D8B365"/>
      <path d="M439.15,412.87 C439.15,416.603 436.123,419.63 432.39,419.63 C428.657,419.63 425.63,416.603 425.63,412.87 C425.63,409.137 428.657,406.11 432.39,406.11 C436.123,406.11 439.15,409.137 439.15,412.87 z" fill-opacity="0" stroke="#D8B365" stroke-width="1" stroke-linecap="round" stroke-linejoin="round" stroke-miterlimit="10"/>
    </g>
    <g>
      <path d="M574.97,27.77 C574.97,31.503 571.943,34.53 568.21,34.53 C564.477,34.53 561.45,31.503 561.45,27.77 C561.45,24.037 564.477,21.01 568.21,21.01 C571.943,21.01 574.97,24.037 574.97,27.77 z" fill="#D8B365"/>
      <path d="M574.97,27.77 C574.97,31.503 571.943,34.53 568.21,34.53 C564.477,34.53 561.45,31.503 561.45,27.77 C561.45,24.037 564.477,21.01 568.21,21.01 C571.943,21.01 574.97,24.037 574.97,27.77 z" fill-opacity="0" stroke="#D8B365" stroke-width="1" stroke-linecap="round" stroke-linejoin="round" stroke-miterlimit="10"/>
    </g>
    <g>
      <path d="M532.08,50.42 C532.08,54.153 529.053,57.18 525.32,57.18 C521.587,57.18 518.56,54.153 518.56,50.42 C518.56,46.687 521.587,43.66 525.32,43.66 C529.053,43.66 532.08,46.687 532.08,50.42 z" fill="#D8B365"/>
      <path d="M532.08,50.42 C532.08,54.153 529.053,57.18 525.32,57.18 C521.587,57.18 518.56,54.153 518.56,50.42 C518.56,46.687 521.587,43.66 525.32,43.66 C529.053,43.66 532.08,46.687 532.08,50.42 z" fill-opacity="0" stroke="#D8B365" stroke-width="1" stroke-linecap="round" stroke-linejoin="round" stroke-miterlimit="10"/>
    </g>
    <g>
      <path d="M453.44,322.26 C453.44,325.993 450.413,329.02 446.68,329.02 C442.947,329.02 439.92,325.993 439.92,322.26 C439.92,318.527 442.947,315.5 446.68,315.5 C450.413,315.5 453.44,318.527 453.44,322.26 z" fill="#D8B365"/>
      <path d="M453.44,322.26 C453.44,325.993 450.413,329.02 446.68,329.02 C442.947,329.02 439.92,325.993 439.92,322.26 C439.92,318.527 442.947,315.5 446.68,315.5 C450.413,315.5 453.44,318.527 453.44,322.26 z" fill-opacity="0" stroke="#D8B365" stroke-width="1" stroke-linecap="round" stroke-linejoin="round" stroke-miterlimit="10"/>
    </g>
    <g>
      <path d="M507.06,118.38 C507.06,122.113 504.033,125.14 500.3,125.14 C496.567,125.14 493.54,122.113 493.54,118.38 C493.54,114.647 496.567,111.62 500.3,111.62 C504.033,111.62 507.06,114.647 507.06,118.38 z" fill="#D8B365"/>
      <path d="M507.06,118.38 C507.06,122.113 504.033,125.14 500.3,125.14 C496.567,125.14 493.54,122.113 493.54,118.38 C493.54,114.647 496.567,111.62 500.3,111.62 C504.033,111.62 507.06,114.647 507.06,118.38 z" fill-opacity="0" stroke="#D8B365" stroke-width="1" stroke-linecap="round" stroke-linejoin="round" stroke-miterlimit="10"/>
    </g>
    <g>
      <path d="M421.27,299.61 C421.27,303.343 418.243,306.37 414.51,306.37 C410.777,306.37 407.75,303.343 407.75,299.61 C407.75,295.877 410.777,292.85 414.51,292.85 C418.243,292.85 421.27,295.877 421.27,299.61 z" fill="#D8B365"/>
      <path d="M421.27,299.61 C421.27,303.343 418.243,306.37 414.51,306.37 C410.777,306.37 407.75,303.343 407.75,299.61 C407.75,295.877 410.777,292.85 414.51,292.85 C418.243,292.85 421.27,295.877 421.27,299.61 z" fill-opacity="0" stroke="#D8B365" stroke-width="1" stroke-linecap="round" stroke-linejoin="round" stroke-miterlimit="10"/>
    </g>
    <g>
      <path d="M510.63,163.69 C510.63,167.423 507.603,170.45 503.87,170.45 C500.137,170.45 497.11,167.423 497.11,163.69 C497.11,159.957 500.137,156.93 503.87,156.93 C507.603,156.93 510.63,159.957 510.63,163.69 z" fill="#D8B365"/>
      <path d="M510.63,163.69 C510.63,167.423 507.603,170.45 503.87,170.45 C500.137,170.45 497.11,167.423 497.11,163.69 C497.11,159.957 500.137,156.93 503.87,156.93 C507.603,156.93 510.63,159.957 510.63,163.69 z" fill-opacity="0" stroke="#D8B365" stroke-width="1" stroke-linecap="round" stroke-linejoin="round" stroke-miterlimit="10"/>
    </g>
    <g>
      <path d="M403.4,435.53 C403.4,439.263 400.373,442.29 396.64,442.29 C392.907,442.29 389.88,439.263 389.88,435.53 C389.88,431.797 392.907,428.77 396.64,428.77 C400.373,428.77 403.4,431.797 403.4,435.53 z" fill="#D8B365"/>
      <path d="M403.4,435.53 C403.4,439.263 400.373,442.29 396.64,442.29 C392.907,442.29 389.88,439.263 389.88,435.53 C389.88,431.797 392.907,428.77 396.64,428.77 C400.373,428.77 403.4,431.797 403.4,435.53 z" fill-opacity="0" stroke="#D8B365" stroke-width="1" stroke-linecap="round" stroke-linejoin="round" stroke-miterlimit="10"/>
    </g>
    <g>
      <path d="M478.46,186.34 C478.46,190.073 475.433,193.1 471.7,193.1 C467.967,193.1 464.94,190.073 464.94,186.34 C464.94,182.607 467.967,179.58 471.7,179.58 C475.433,179.58 478.46,182.607 478.46,186.34 z" fill="#D8B365"/>
      <path d="M478.46,186.34 C478.46,190.073 475.433,193.1 471.7,193.1 C467.967,193.1 464.94,190.073 464.94,186.34 C464.94,182.607 467.967,179.58 471.7,179.58 C475.433,179.58 478.46,182.607 478.46,186.34 z" fill-opacity="0" stroke="#D8B365" stroke-width="1" stroke-linecap="round" stroke-linejoin="round" stroke-miterlimit="10"/>
    </g>
    <g>
      <path d="M385.53,390.22 C385.53,393.953 382.503,396.98 378.77,396.98 C375.037,396.98 372.01,393.953 372.01,390.22 C372.01,386.487 375.037,383.46 378.77,383.46 C382.503,383.46 385.53,386.487 385.53,390.22 z" fill="#D8B365"/>
      <path d="M385.53,390.22 C385.53,393.953 382.503,396.98 378.77,396.98 C375.037,396.98 372.01,393.953 372.01,390.22 C372.01,386.487 375.037,383.46 378.77,383.46 C382.503,383.46 385.53,386.487 385.53,390.22 z" fill-opacity="0" stroke="#D8B365" stroke-width="1" stroke-linecap="round" stroke-linejoin="round" stroke-miterlimit="10"/>
    </g>
    <g>
      <path d="M439.15,367.57 C439.15,371.303 436.123,374.33 432.39,374.33 C428.657,374.33 425.63,371.303 425.63,367.57 C425.63,363.837 428.657,360.81 432.39,360.81 C436.123,360.81 439.15,363.837 439.15,367.57 z" fill="#D8B365"/>
      <path d="M439.15,367.57 C439.15,371.303 436.123,374.33 432.39,374.33 C428.657,374.33 425.63,371.303 425.63,367.57 C425.63,363.837 428.657,360.81 432.39,360.81 C436.123,360.81 439.15,363.837 439.15,367.57 z" fill-opacity="0" stroke="#D8B365" stroke-width="1" stroke-linecap="round" stroke-linejoin="round" stroke-miterlimit="10"/>
    </g>
    <path d="M314.43,494.42 L314.43,14.17" fill-opacity="0" stroke="#5AB4AC" stroke-width="1" stroke-dasharray="5.69,5.69" stroke-linejoin="round" stroke-miterlimit="10"/>
    <g clip-path="url(#Clip_1)">
      <text transform="matrix(0, -1, 1, 0, 321.13, 72.632)">
        <tspan x="-45.758" y="2.5" font-family="ArialMT" font-size="8.54" fill="#5AB4AC">Average life expectancy</tspan>
      </text>
    </g>
    <g clip-path="url(#Clip_2)">
      <text transform="matrix(0, -1, 1, 0, 321.13, 72.632)">
        <tspan x="-45.758" y="2.5" font-family="ArialMT" font-size="8.54" fill="#5AB4AC">Average life expectancy</tspan>
      </text>
    </g>
    <g clip-path="url(#Clip_3)">
      <text transform="matrix(0, -1, 1, 0, 321.13, 72.632)">
        <tspan x="-45.758" y="2.5" font-family="ArialMT" font-size="8.54" fill="#5AB4AC">Average life expectancy</tspan>
      </text>
    </g>
    <g clip-path="url(#Clip_4)">
      <text transform="matrix(0, -1, 1, 0, 321.13, 72.632)">
        <tspan x="-45.758" y="2.5" font-family="ArialMT" font-size="8.54" fill="#5AB4AC">Average life expectancy</tspan>
      </text>
    </g>
    <g clip-path="url(#Clip_5)">
      <text transform="matrix(0, -1, 1, 0, 321.13, 72.632)">
        <tspan x="-45.758" y="2.5" font-family="ArialMT" font-size="8.54" fill="#5AB4AC">Average life expectancy</tspan>
      </text>
    </g>
    <g clip-path="url(#Clip_6)">
      <text transform="matrix(0, -1, 1, 0, 321.13, 72.632)">
        <tspan x="-45.758" y="2.5" font-family="ArialMT" font-size="8.54" fill="#5AB4AC">Average life expectancy</tspan>
      </text>
    </g>
    <g clip-path="url(#Clip_7)">
      <text transform="matrix(0, -1, 1, 0, 321.13, 72.632)">
        <tspan x="-45.758" y="2.5" font-family="ArialMT" font-size="8.54" fill="#5AB4AC">Average life expectancy</tspan>
      </text>
    </g>
    <g clip-path="url(#Clip_8)">
      <text transform="matrix(0, -1, 1, 0, 321.13, 72.632)">
        <tspan x="-45.758" y="2.5" font-family="ArialMT" font-size="8.54" fill="#5AB4AC">Average life expectancy</tspan>
      </text>
    </g>
    <g clip-path="url(#Clip_9)">
      <text transform="matrix(0, -1, 1, 0, 321.13, 72.632)">
        <tspan x="-45.758" y="2.5" font-family="ArialMT" font-size="8.54" fill="#5AB4AC">Average life expectancy</tspan>
      </text>
    </g>
    <g clip-path="url(#Clip_10)">
      <text transform="matrix(0, -1, 1, 0, 321.13, 72.632)">
        <tspan x="-45.758" y="2.5" font-family="ArialMT" font-size="8.54" fill="#5AB4AC">Average life expectancy</tspan>
      </text>
    </g>
    <g clip-path="url(#Clip_11)">
      <text transform="matrix(0, -1, 1, 0, 321.13, 72.632)">
        <tspan x="-45.758" y="2.5" font-family="ArialMT" font-size="8.54" fill="#5AB4AC">Average life expectancy</tspan>
      </text>
    </g>
    <g clip-path="url(#Clip_12)">
      <text transform="matrix(0, -1, 1, 0, 321.13, 72.632)">
        <tspan x="-45.758" y="2.5" font-family="ArialMT" font-size="8.54" fill="#5AB4AC">Average life expectancy</tspan>
      </text>
    </g>
    <g clip-path="url(#Clip_13)">
      <text transform="matrix(0, -1, 1, 0, 321.13, 72.632)">
        <tspan x="-45.758" y="2.5" font-family="ArialMT" font-size="8.54" fill="#5AB4AC">Average life expectancy</tspan>
      </text>
    </g>
    <g clip-path="url(#Clip_14)">
      <text transform="matrix(0, -1, 1, 0, 321.13, 72.632)">
        <tspan x="-45.758" y="2.5" font-family="ArialMT" font-size="8.54" fill="#5AB4AC">Average life expectancy</tspan>
      </text>
    </g>
    <g clip-path="url(#Clip_15)">
      <text transform="matrix(0, -1, 1, 0, 321.13, 72.632)">
        <tspan x="-45.758" y="2.5" font-family="ArialMT" font-size="8.54" fill="#5AB4AC">Average life expectancy</tspan>
      </text>
    </g>
    <g clip-path="url(#Clip_16)">
      <text transform="matrix(0, -1, 1, 0, 321.13, 72.632)">
        <tspan x="-45.758" y="2.5" font-family="ArialMT" font-size="8.54" fill="#5AB4AC">Average life expectancy</tspan>
      </text>
    </g>
    <g clip-path="url(#Clip_17)">
      <text transform="matrix(0, -1, 1, 0, 321.13, 72.632)">
        <tspan x="-45.758" y="2.5" font-family="ArialMT" font-size="8.54" fill="#5AB4AC">Average life expectancy</tspan>
      </text>
    </g>
    <g clip-path="url(#Clip_18)">
      <text transform="matrix(0, -1, 1, 0, 321.13, 72.632)">
        <tspan x="-45.758" y="2.5" font-family="ArialMT" font-size="8.54" fill="#5AB4AC">Average life expectancy</tspan>
      </text>
    </g>
    <g clip-path="url(#Clip_19)">
      <text transform="matrix(0, -1, 1, 0, 321.13, 72.632)">
        <tspan x="-45.758" y="2.5" font-family="ArialMT" font-size="8.54" fill="#5AB4AC">Average life expectancy</tspan>
      </text>
    </g>
    <g clip-path="url(#Clip_20)">
      <text transform="matrix(0, -1, 1, 0, 321.13, 72.632)">
        <tspan x="-45.758" y="2.5" font-family="ArialMT" font-size="8.54" fill="#5AB4AC">Average life expectancy</tspan>
      </text>
    </g>
    <g clip-path="url(#Clip_21)">
      <text transform="matrix(0, -1, 1, 0, 321.13, 72.632)">
        <tspan x="-45.758" y="2.5" font-family="ArialMT" font-size="8.54" fill="#5AB4AC">Average life expectancy</tspan>
      </text>
    </g>
    <g clip-path="url(#Clip_22)">
      <text transform="matrix(0, -1, 1, 0, 321.13, 72.632)">
        <tspan x="-45.758" y="2.5" font-family="ArialMT" font-size="8.54" fill="#5AB4AC">Average life expectancy</tspan>
      </text>
    </g>
    <g clip-path="url(#Clip_23)">
      <text transform="matrix(0, -1, 1, 0, 321.13, 72.632)">
        <tspan x="-45.758" y="2.5" font-family="ArialMT" font-size="8.54" fill="#5AB4AC">Average life expectancy</tspan>
      </text>
    </g>
    <g clip-path="url(#Clip_24)">
      <text transform="matrix(0, -1, 1, 0, 321.13, 72.632)">
        <tspan x="-45.758" y="2.5" font-family="ArialMT" font-size="8.54" fill="#5AB4AC">Average life expectancy</tspan>
      </text>
    </g>
    <g clip-path="url(#Clip_25)">
      <text transform="matrix(0, -1, 1, 0, 321.13, 72.632)">
        <tspan x="-45.758" y="2.5" font-family="ArialMT" font-size="8.54" fill="#5AB4AC">Average life expectancy</tspan>
      </text>
    </g>
    <g clip-path="url(#Clip_26)">
      <text transform="matrix(0, -1, 1, 0, 321.13, 72.632)">
        <tspan x="-45.758" y="2.5" font-family="ArialMT" font-size="8.54" fill="#5AB4AC">Average life expectancy</tspan>
      </text>
    </g>
    <g clip-path="url(#Clip_27)">
      <text transform="matrix(0, -1, 1, 0, 321.13, 72.632)">
        <tspan x="-45.758" y="2.5" font-family="ArialMT" font-size="8.54" fill="#5AB4AC">Average life expectancy</tspan>
      </text>
    </g>
    <g clip-path="url(#Clip_28)">
      <text transform="matrix(0, -1, 1, 0, 321.13, 72.632)">
        <tspan x="-45.758" y="2.5" font-family="ArialMT" font-size="8.54" fill="#5AB4AC">Average life expectancy</tspan>
      </text>
    </g>
    <g clip-path="url(#Clip_29)">
      <text transform="matrix(0, -1, 1, 0, 321.13, 72.632)">
        <tspan x="-45.758" y="2.5" font-family="ArialMT" font-size="8.54" fill="#5AB4AC">Average life expectancy</tspan>
      </text>
    </g>
    <g clip-path="url(#Clip_30)">
      <text transform="matrix(0, -1, 1, 0, 321.13, 72.632)">
        <tspan x="-45.758" y="2.5" font-family="ArialMT" font-size="8.54" fill="#5AB4AC">Average life expectancy</tspan>
      </text>
    </g>
    <g clip-path="url(#Clip_31)">
      <text transform="matrix(0, -1, 1, 0, 321.13, 72.632)">
        <tspan x="-45.758" y="2.5" font-family="ArialMT" font-size="8.54" fill="#5AB4AC">Average life expectancy</tspan>
      </text>
    </g>
    <g clip-path="url(#Clip_32)">
      <text transform="matrix(0, -1, 1, 0, 321.13, 72.632)">
        <tspan x="-45.758" y="2.5" font-family="ArialMT" font-size="8.54" fill="#5AB4AC">Average life expectancy</tspan>
      </text>
    </g>
    <g clip-path="url(#Clip_33)">
      <text transform="matrix(0, -1, 1, 0, 321.13, 72.632)">
        <tspan x="-45.758" y="2.5" font-family="ArialMT" font-size="8.54" fill="#5AB4AC">Average life expectancy</tspan>
      </text>
    </g>
    <g clip-path="url(#Clip_34)">
      <text transform="matrix(0, -1, 1, 0, 321.13, 72.632)">
        <tspan x="-45.758" y="2.5" font-family="ArialMT" font-size="8.54" fill="#5AB4AC">Average life expectancy</tspan>
      </text>
    </g>
    <g clip-path="url(#Clip_35)">
      <text transform="matrix(0, -1, 1, 0, 321.13, 72.632)">
        <tspan x="-45.758" y="2.5" font-family="ArialMT" font-size="8.54" fill="#5AB4AC">Average life expectancy</tspan>
      </text>
    </g>
    <g clip-path="url(#Clip_36)">
      <text transform="matrix(0, -1, 1, 0, 321.13, 72.632)">
        <tspan x="-45.758" y="2.5" font-family="ArialMT" font-size="8.54" fill="#5AB4AC">Average life expectancy</tspan>
      </text>
    </g>
    <g clip-path="url(#Clip_37)">
      <text transform="matrix(0, -1, 1, 0, 321.13, 72.632)">
        <tspan x="-45.758" y="2.5" font-family="ArialMT" font-size="8.54" fill="#5AB4AC">Average life expectancy</tspan>
      </text>
    </g>
    <g clip-path="url(#Clip_38)">
      <text transform="matrix(0, -1, 1, 0, 321.13, 72.632)">
        <tspan x="-45.758" y="2.5" font-family="ArialMT" font-size="8.54" fill="#5AB4AC">Average life expectancy</tspan>
      </text>
    </g>
    <g clip-path="url(#Clip_39)">
      <text transform="matrix(0, -1, 1, 0, 321.13, 72.632)">
        <tspan x="-45.758" y="2.5" font-family="ArialMT" font-size="8.54" fill="#5AB4AC">Average life expectancy</tspan>
      </text>
    </g>
    <g clip-path="url(#Clip_40)">
      <text transform="matrix(0, -1, 1, 0, 321.13, 72.632)">
        <tspan x="-45.758" y="2.5" font-family="ArialMT" font-size="8.54" fill="#5AB4AC">Average life expectancy</tspan>
      </text>
    </g>
    <g clip-path="url(#Clip_41)">
      <text transform="matrix(0, -1, 1, 0, 321.13, 72.632)">
        <tspan x="-45.758" y="2.5" font-family="ArialMT" font-size="8.54" fill="#5AB4AC">Average life expectancy</tspan>
      </text>
    </g>
    <g clip-path="url(#Clip_42)">
      <text transform="matrix(0, -1, 1, 0, 321.13, 72.632)">
        <tspan x="-45.758" y="2.5" font-family="ArialMT" font-size="8.54" fill="#5AB4AC">Average life expectancy</tspan>
      </text>
    </g>
    <path d="M446.68,494.42 L446.68,14.17" fill-opacity="0" stroke="#D8B365" stroke-width="1" stroke-dasharray="5.69,5.69" stroke-linejoin="round" stroke-miterlimit="10"/>
    <g clip-path="url(#Clip_43)">
      <text transform="matrix(0, -1, 1, 0, 453.38, 435.082)">
        <tspan x="-45.758" y="2.5" font-family="ArialMT" font-size="8.54" fill="#D8B365">Average life expectancy</tspan>
      </text>
    </g>
    <g clip-path="url(#Clip_44)">
      <text transform="matrix(0, -1, 1, 0, 453.38, 435.082)">
        <tspan x="-45.758" y="2.5" font-family="ArialMT" font-size="8.54" fill="#D8B365">Average life expectancy</tspan>
      </text>
    </g>
    <g clip-path="url(#Clip_45)">
      <text transform="matrix(0, -1, 1, 0, 453.38, 435.082)">
        <tspan x="-45.758" y="2.5" font-family="ArialMT" font-size="8.54" fill="#D8B365">Average life expectancy</tspan>
      </text>
    </g>
    <g clip-path="url(#Clip_46)">
      <text transform="matrix(0, -1, 1, 0, 453.38, 435.082)">
        <tspan x="-45.758" y="2.5" font-family="ArialMT" font-size="8.54" fill="#D8B365">Average life expectancy</tspan>
      </text>
    </g>
    <g clip-path="url(#Clip_47)">
      <text transform="matrix(0, -1, 1, 0, 453.38, 435.082)">
        <tspan x="-45.758" y="2.5" font-family="ArialMT" font-size="8.54" fill="#D8B365">Average life expectancy</tspan>
      </text>
    </g>
    <g clip-path="url(#Clip_48)">
      <text transform="matrix(0, -1, 1, 0, 453.38, 435.082)">
        <tspan x="-45.758" y="2.5" font-family="ArialMT" font-size="8.54" fill="#D8B365">Average life expectancy</tspan>
      </text>
    </g>
    <g clip-path="url(#Clip_49)">
      <text transform="matrix(0, -1, 1, 0, 453.38, 435.082)">
        <tspan x="-45.758" y="2.5" font-family="ArialMT" font-size="8.54" fill="#D8B365">Average life expectancy</tspan>
      </text>
    </g>
    <g clip-path="url(#Clip_50)">
      <text transform="matrix(0, -1, 1, 0, 453.38, 435.082)">
        <tspan x="-45.758" y="2.5" font-family="ArialMT" font-size="8.54" fill="#D8B365">Average life expectancy</tspan>
      </text>
    </g>
    <g clip-path="url(#Clip_51)">
      <text transform="matrix(0, -1, 1, 0, 453.38, 435.082)">
        <tspan x="-45.758" y="2.5" font-family="ArialMT" font-size="8.54" fill="#D8B365">Average life expectancy</tspan>
      </text>
    </g>
    <g clip-path="url(#Clip_52)">
      <text transform="matrix(0, -1, 1, 0, 453.38, 435.082)">
        <tspan x="-45.758" y="2.5" font-family="ArialMT" font-size="8.54" fill="#D8B365">Average life expectancy</tspan>
      </text>
    </g>
    <g clip-path="url(#Clip_53)">
      <text transform="matrix(0, -1, 1, 0, 453.38, 435.082)">
        <tspan x="-45.758" y="2.5" font-family="ArialMT" font-size="8.54" fill="#D8B365">Average life expectancy</tspan>
      </text>
    </g>
    <g clip-path="url(#Clip_54)">
      <text transform="matrix(0, -1, 1, 0, 453.38, 435.082)">
        <tspan x="-45.758" y="2.5" font-family="ArialMT" font-size="8.54" fill="#D8B365">Average life expectancy</tspan>
      </text>
    </g>
    <g clip-path="url(#Clip_55)">
      <text transform="matrix(0, -1, 1, 0, 453.38, 435.082)">
        <tspan x="-45.758" y="2.5" font-family="ArialMT" font-size="8.54" fill="#D8B365">Average life expectancy</tspan>
      </text>
    </g>
    <g clip-path="url(#Clip_56)">
      <text transform="matrix(0, -1, 1, 0, 453.38, 435.082)">
        <tspan x="-45.758" y="2.5" font-family="ArialMT" font-size="8.54" fill="#D8B365">Average life expectancy</tspan>
      </text>
    </g>
    <g clip-path="url(#Clip_57)">
      <text transform="matrix(0, -1, 1, 0, 453.38, 435.082)">
        <tspan x="-45.758" y="2.5" font-family="ArialMT" font-size="8.54" fill="#D8B365">Average life expectancy</tspan>
      </text>
    </g>
    <g clip-path="url(#Clip_58)">
      <text transform="matrix(0, -1, 1, 0, 453.38, 435.082)">
        <tspan x="-45.758" y="2.5" font-family="ArialMT" font-size="8.54" fill="#D8B365">Average life expectancy</tspan>
      </text>
    </g>
    <g clip-path="url(#Clip_59)">
      <text transform="matrix(0, -1, 1, 0, 453.38, 435.082)">
        <tspan x="-45.758" y="2.5" font-family="ArialMT" font-size="8.54" fill="#D8B365">Average life expectancy</tspan>
      </text>
    </g>
    <g clip-path="url(#Clip_60)">
      <text transform="matrix(0, -1, 1, 0, 453.38, 435.082)">
        <tspan x="-45.758" y="2.5" font-family="ArialMT" font-size="8.54" fill="#D8B365">Average life expectancy</tspan>
      </text>
    </g>
    <g clip-path="url(#Clip_61)">
      <text transform="matrix(0, -1, 1, 0, 453.38, 435.082)">
        <tspan x="-45.758" y="2.5" font-family="ArialMT" font-size="8.54" fill="#D8B365">Average life expectancy</tspan>
      </text>
    </g>
    <g clip-path="url(#Clip_62)">
      <text transform="matrix(0, -1, 1, 0, 453.38, 435.082)">
        <tspan x="-45.758" y="2.5" font-family="ArialMT" font-size="8.54" fill="#D8B365">Average life expectancy</tspan>
      </text>
    </g>
    <g clip-path="url(#Clip_63)">
      <text transform="matrix(0, -1, 1, 0, 453.38, 435.082)">
        <tspan x="-45.758" y="2.5" font-family="ArialMT" font-size="8.54" fill="#D8B365">Average life expectancy</tspan>
      </text>
    </g>
    <g clip-path="url(#Clip_64)">
      <text transform="matrix(0, -1, 1, 0, 453.38, 435.082)">
        <tspan x="-45.758" y="2.5" font-family="ArialMT" font-size="8.54" fill="#D8B365">Average life expectancy</tspan>
      </text>
    </g>
    <g clip-path="url(#Clip_65)">
      <text transform="matrix(0, -1, 1, 0, 453.38, 435.082)">
        <tspan x="-45.758" y="2.5" font-family="ArialMT" font-size="8.54" fill="#D8B365">Average life expectancy</tspan>
      </text>
    </g>
    <g clip-path="url(#Clip_66)">
      <text transform="matrix(0, -1, 1, 0, 453.38, 435.082)">
        <tspan x="-45.758" y="2.5" font-family="ArialMT" font-size="8.54" fill="#D8B365">Average life expectancy</tspan>
      </text>
    </g>
    <g clip-path="url(#Clip_67)">
      <text transform="matrix(0, -1, 1, 0, 453.38, 435.082)">
        <tspan x="-45.758" y="2.5" font-family="ArialMT" font-size="8.54" fill="#D8B365">Average life expectancy</tspan>
      </text>
    </g>
    <g clip-path="url(#Clip_68)">
      <text transform="matrix(0, -1, 1, 0, 453.38, 435.082)">
        <tspan x="-45.758" y="2.5" font-family="ArialMT" font-size="8.54" fill="#D8B365">Average life expectancy</tspan>
      </text>
    </g>
    <g clip-path="url(#Clip_69)">
      <text transform="matrix(0, -1, 1, 0, 453.38, 435.082)">
        <tspan x="-45.758" y="2.5" font-family="ArialMT" font-size="8.54" fill="#D8B365">Average life expectancy</tspan>
      </text>
    </g>
    <g clip-path="url(#Clip_70)">
      <text transform="matrix(0, -1, 1, 0, 453.38, 435.082)">
        <tspan x="-45.758" y="2.5" font-family="ArialMT" font-size="8.54" fill="#D8B365">Average life expectancy</tspan>
      </text>
    </g>
    <g clip-path="url(#Clip_71)">
      <text transform="matrix(0, -1, 1, 0, 453.38, 435.082)">
        <tspan x="-45.758" y="2.5" font-family="ArialMT" font-size="8.54" fill="#D8B365">Average life expectancy</tspan>
      </text>
    </g>
    <g clip-path="url(#Clip_72)">
      <text transform="matrix(0, -1, 1, 0, 453.38, 435.082)">
        <tspan x="-45.758" y="2.5" font-family="ArialMT" font-size="8.54" fill="#D8B365">Average life expectancy</tspan>
      </text>
    </g>
    <g clip-path="url(#Clip_73)">
      <text transform="matrix(0, -1, 1, 0, 453.38, 435.082)">
        <tspan x="-45.758" y="2.5" font-family="ArialMT" font-size="8.54" fill="#D8B365">Average life expectancy</tspan>
      </text>
    </g>
    <g clip-path="url(#Clip_74)">
      <text transform="matrix(0, -1, 1, 0, 453.38, 435.082)">
        <tspan x="-45.758" y="2.5" font-family="ArialMT" font-size="8.54" fill="#D8B365">Average life expectancy</tspan>
      </text>
    </g>
    <g clip-path="url(#Clip_75)">
      <text transform="matrix(0, -1, 1, 0, 453.38, 435.082)">
        <tspan x="-45.758" y="2.5" font-family="ArialMT" font-size="8.54" fill="#D8B365">Average life expectancy</tspan>
      </text>
    </g>
    <g clip-path="url(#Clip_76)">
      <text transform="matrix(0, -1, 1, 0, 453.38, 435.082)">
        <tspan x="-45.758" y="2.5" font-family="ArialMT" font-size="8.54" fill="#D8B365">Average life expectancy</tspan>
      </text>
    </g>
    <g clip-path="url(#Clip_77)">
      <text transform="matrix(0, -1, 1, 0, 453.38, 435.082)">
        <tspan x="-45.758" y="2.5" font-family="ArialMT" font-size="8.54" fill="#D8B365">Average life expectancy</tspan>
      </text>
    </g>
    <g clip-path="url(#Clip_78)">
      <text transform="matrix(0, -1, 1, 0, 453.38, 435.082)">
        <tspan x="-45.758" y="2.5" font-family="ArialMT" font-size="8.54" fill="#D8B365">Average life expectancy</tspan>
      </text>
    </g>
    <g clip-path="url(#Clip_79)">
      <text transform="matrix(0, -1, 1, 0, 453.38, 435.082)">
        <tspan x="-45.758" y="2.5" font-family="ArialMT" font-size="8.54" fill="#D8B365">Average life expectancy</tspan>
      </text>
    </g>
    <g clip-path="url(#Clip_80)">
      <text transform="matrix(0, -1, 1, 0, 453.38, 435.082)">
        <tspan x="-45.758" y="2.5" font-family="ArialMT" font-size="8.54" fill="#D8B365">Average life expectancy</tspan>
      </text>
    </g>
    <g clip-path="url(#Clip_81)">
      <text transform="matrix(0, -1, 1, 0, 453.38, 435.082)">
        <tspan x="-45.758" y="2.5" font-family="ArialMT" font-size="8.54" fill="#D8B365">Average life expectancy</tspan>
      </text>
    </g>
    <g clip-path="url(#Clip_82)">
      <text transform="matrix(0, -1, 1, 0, 453.38, 435.082)">
        <tspan x="-45.758" y="2.5" font-family="ArialMT" font-size="8.54" fill="#D8B365">Average life expectancy</tspan>
      </text>
    </g>
    <g clip-path="url(#Clip_83)">
      <text transform="matrix(0, -1, 1, 0, 453.38, 435.082)">
        <tspan x="-45.758" y="2.5" font-family="ArialMT" font-size="8.54" fill="#D8B365">Average life expectancy</tspan>
      </text>
    </g>
    <g clip-path="url(#Clip_84)">
      <text transform="matrix(0, -1, 1, 0, 453.38, 435.082)">
        <tspan x="-45.758" y="2.5" font-family="ArialMT" font-size="8.54" fill="#D8B365">Average life expectancy</tspan>
      </text>
    </g>
    <g clip-path="url(#Clip_85)">
      <text transform="matrix(1, 0, 0, 1, 311.349, 210.04)">
        <tspan x="-7.419" y="1.5" font-family="Arial-BoldMT" font-size="7.11" fill="#FFFFFF">79.7</tspan>
      </text>
    </g>
    <g clip-path="url(#Clip_86)">
      <text transform="matrix(1, 0, 0, 1, 339.949, 142.08)">
        <tspan x="-7.419" y="1.5" font-family="Arial-BoldMT" font-size="7.11" fill="#FFFFFF">80.5</tspan>
      </text>
    </g>
    <g clip-path="url(#Clip_87)">
      <text transform="matrix(1, 0, 0, 1, 425.739, 74.12)">
        <tspan x="-7.419" y="1.5" font-family="Arial-BoldMT" font-size="7.11" fill="#FFFFFF">82.9</tspan>
      </text>
    </g>
    <g clip-path="url(#Clip_88)">
      <text transform="matrix(1, 0, 0, 1, 332.799, 232.69)">
        <tspan x="-7.419" y="1.5" font-family="Arial-BoldMT" font-size="7.11" fill="#FFFFFF">80.3</tspan>
      </text>
    </g>
    <g clip-path="url(#Clip_89)">
      <text transform="matrix(1, 0, 0, 1, 393.564, 96.77)">
        <tspan x="-4.454" y="1.5" font-family="Arial-BoldMT" font-size="7.11" fill="#FFFFFF">82</tspan>
      </text>
    </g>
    <g clip-path="url(#Clip_90)">
      <text transform="matrix(1, 0, 0, 1, 154.079, 481.88)">
        <tspan x="-7.419" y="1.5" font-family="Arial-BoldMT" font-size="7.11" fill="#FFFFFF">75.3</tspan>
      </text>
    </g>
    <g clip-path="url(#Clip_91)">
      <text transform="matrix(1, 0, 0, 1, 179.104, 459.23)">
        <tspan x="-4.454" y="1.5" font-family="Arial-BoldMT" font-size="7.11" fill="#FFFFFF">76</tspan>
      </text>
    </g>
    <g clip-path="url(#Clip_92)">
      <text transform="matrix(1, 0, 0, 1, 347.099, 278)">
        <tspan x="-7.419" y="1.5" font-family="Arial-BoldMT" font-size="7.11" fill="#FFFFFF">80.7</tspan>
      </text>
    </g>
    <g clip-path="url(#Clip_93)">
      <text transform="matrix(1, 0, 0, 1, 311.349, 255.35)">
        <tspan x="-7.419" y="1.5" font-family="Arial-BoldMT" font-size="7.11" fill="#FFFFFF">79.7</tspan>
      </text>
    </g>
    <g clip-path="url(#Clip_94)">
      <text transform="matrix(1, 0, 0, 1, 332.799, 345.96)">
        <tspan x="-7.419" y="1.5" font-family="Arial-BoldMT" font-size="7.11" fill="#FFFFFF">80.3</tspan>
      </text>
    </g>
    <g clip-path="url(#Clip_95)">
      <text transform="matrix(1, 0, 0, 1, 196.969, 413.92)">
        <tspan x="-7.419" y="1.5" font-family="Arial-BoldMT" font-size="7.11" fill="#FFFFFF">76.5</tspan>
      </text>
    </g>
    <g clip-path="url(#Clip_96)">
      <text transform="matrix(1, 0, 0, 1, 440.029, 28.81)">
        <tspan x="-7.419" y="1.5" font-family="Arial-BoldMT" font-size="7.11" fill="#FFFFFF">83.3</tspan>
      </text>
    </g>
    <g clip-path="url(#Clip_97)">
      <text transform="matrix(1, 0, 0, 1, 422.159, 51.46)">
        <tspan x="-7.419" y="1.5" font-family="Arial-BoldMT" font-size="7.11" fill="#FFFFFF">82.8</tspan>
      </text>
    </g>
    <g clip-path="url(#Clip_98)">
      <text transform="matrix(1, 0, 0, 1, 282.759, 323.31)">
        <tspan x="-7.419" y="1.5" font-family="Arial-BoldMT" font-size="7.11" fill="#FFFFFF">78.9</tspan>
      </text>
    </g>
    <g clip-path="url(#Clip_99)">
      <text transform="matrix(1, 0, 0, 1, 368.539, 119.43)">
        <tspan x="-7.419" y="1.5" font-family="Arial-BoldMT" font-size="7.11" fill="#FFFFFF">81.3</tspan>
      </text>
    </g>
    <g clip-path="url(#Clip_100)">
      <text transform="matrix(1, 0, 0, 1, 329.229, 300.65)">
        <tspan x="-7.419" y="1.5" font-family="Arial-BoldMT" font-size="7.11" fill="#FFFFFF">80.2</tspan>
      </text>
    </g>
    <g clip-path="url(#Clip_101)">
      <text transform="matrix(1, 0, 0, 1, 339.949, 164.73)">
        <tspan x="-7.419" y="1.5" font-family="Arial-BoldMT" font-size="7.11" fill="#FFFFFF">80.5</tspan>
      </text>
    </g>
    <g clip-path="url(#Clip_102)">
      <text transform="matrix(1, 0, 0, 1, 229.139, 436.57)">
        <tspan x="-7.419" y="1.5" font-family="Arial-BoldMT" font-size="7.11" fill="#FFFFFF">77.4</tspan>
      </text>
    </g>
    <g clip-path="url(#Clip_103)">
      <text transform="matrix(1, 0, 0, 1, 350.669, 187.39)">
        <tspan x="-7.419" y="1.5" font-family="Arial-BoldMT" font-size="7.11" fill="#FFFFFF">80.8</tspan>
      </text>
    </g>
    <g clip-path="url(#Clip_104)">
      <text transform="matrix(1, 0, 0, 1, 261.309, 391.27)">
        <tspan x="-7.419" y="1.5" font-family="Arial-BoldMT" font-size="7.11" fill="#FFFFFF">78.3</tspan>
      </text>
    </g>
    <g clip-path="url(#Clip_105)">
      <text transform="matrix(1, 0, 0, 1, 282.759, 368.61)">
        <tspan x="-7.419" y="1.5" font-family="Arial-BoldMT" font-size="7.11" fill="#FFFFFF">78.9</tspan>
      </text>
    </g>
    <g clip-path="url(#Clip_106)">
      <text transform="matrix(1, 0, 0, 1, 497.219, 210.04)">
        <tspan x="-7.419" y="1.5" font-family="Arial-BoldMT" font-size="7.11" fill="#FFFFFF">84.9</tspan>
      </text>
    </g>
    <g clip-path="url(#Clip_107)">
      <text transform="matrix(1, 0, 0, 1, 529.389, 142.08)">
        <tspan x="-7.419" y="1.5" font-family="Arial-BoldMT" font-size="7.11" fill="#FFFFFF">85.8</tspan>
      </text>
    </g>
    <g clip-path="url(#Clip_108)">
      <text transform="matrix(1, 0, 0, 1, 511.519, 74.12)">
        <tspan x="-7.419" y="1.5" font-family="Arial-BoldMT" font-size="7.11" fill="#FFFFFF">85.3</tspan>
      </text>
    </g>
    <g clip-path="url(#Clip_109)">
      <text transform="matrix(1, 0, 0, 1, 450.759, 232.69)">
        <tspan x="-7.419" y="1.5" font-family="Arial-BoldMT" font-size="7.11" fill="#FFFFFF">83.6</tspan>
      </text>
    </g>
    <g clip-path="url(#Clip_110)">
      <text transform="matrix(1, 0, 0, 1, 500.794, 96.77)">
        <tspan x="-4.454" y="1.5" font-family="Arial-BoldMT" font-size="7.11" fill="#FFFFFF">85</tspan>
      </text>
    </g>
    <g clip-path="url(#Clip_111)">
      <text transform="matrix(1, 0, 0, 1, 282.759, 481.88)">
        <tspan x="-7.419" y="1.5" font-family="Arial-BoldMT" font-size="7.11" fill="#FFFFFF">78.9</tspan>
      </text>
    </g>
    <g clip-path="url(#Clip_112)">
      <text transform="matrix(1, 0, 0, 1, 436.459, 459.23)">
        <tspan x="-7.419" y="1.5" font-family="Arial-BoldMT" font-size="7.11" fill="#FFFFFF">83.2</tspan>
      </text>
    </g>
    <g clip-path="url(#Clip_113)">
      <text transform="matrix(1, 0, 0, 1, 418.589, 278)">
        <tspan x="-7.419" y="1.5" font-family="Arial-BoldMT" font-size="7.11" fill="#FFFFFF">82.7</tspan>
      </text>
    </g>
    <g clip-path="url(#Clip_114)">
      <text transform="matrix(1, 0, 0, 1, 454.329, 255.35)">
        <tspan x="-7.419" y="1.5" font-family="Arial-BoldMT" font-size="7.11" fill="#FFFFFF">83.7</tspan>
      </text>
    </g>
    <g clip-path="url(#Clip_115)">
      <text transform="matrix(1, 0, 0, 1, 397.139, 345.96)">
        <tspan x="-7.419" y="1.5" font-family="Arial-BoldMT" font-size="7.11" fill="#FFFFFF">82.1</tspan>
      </text>
    </g>
    <g clip-path="url(#Clip_116)">
      <text transform="matrix(1, 0, 0, 1, 432.879, 413.92)">
        <tspan x="-7.419" y="1.5" font-family="Arial-BoldMT" font-size="7.11" fill="#FFFFFF">83.1</tspan>
      </text>
    </g>
    <g clip-path="url(#Clip_117)">
      <text transform="matrix(1, 0, 0, 1, 568.709, 28.81)">
        <tspan x="-7.419" y="1.5" font-family="Arial-BoldMT" font-size="7.11" fill="#FFFFFF">86.9</tspan>
      </text>
    </g>
    <g clip-path="url(#Clip_118)">
      <text transform="matrix(1, 0, 0, 1, 525.819, 51.46)">
        <tspan x="-7.419" y="1.5" font-family="Arial-BoldMT" font-size="7.11" fill="#FFFFFF">85.7</tspan>
      </text>
    </g>
    <g clip-path="url(#Clip_119)">
      <text transform="matrix(1, 0, 0, 1, 447.179, 323.31)">
        <tspan x="-7.419" y="1.5" font-family="Arial-BoldMT" font-size="7.11" fill="#FFFFFF">83.5</tspan>
      </text>
    </g>
    <g clip-path="url(#Clip_120)">
      <text transform="matrix(1, 0, 0, 1, 500.794, 119.43)">
        <tspan x="-4.454" y="1.5" font-family="Arial-BoldMT" font-size="7.11" fill="#FFFFFF">85</tspan>
      </text>
    </g>
    <g clip-path="url(#Clip_121)">
      <text transform="matrix(1, 0, 0, 1, 415.009, 300.65)">
        <tspan x="-7.419" y="1.5" font-family="Arial-BoldMT" font-size="7.11" fill="#FFFFFF">82.6</tspan>
      </text>
    </g>
    <g clip-path="url(#Clip_122)">
      <text transform="matrix(1, 0, 0, 1, 504.369, 164.73)">
        <tspan x="-7.419" y="1.5" font-family="Arial-BoldMT" font-size="7.11" fill="#FFFFFF">85.1</tspan>
      </text>
    </g>
    <g clip-path="url(#Clip_123)">
      <text transform="matrix(1, 0, 0, 1, 397.139, 436.57)">
        <tspan x="-7.419" y="1.5" font-family="Arial-BoldMT" font-size="7.11" fill="#FFFFFF">82.1</tspan>
      </text>
    </g>
    <g clip-path="url(#Clip_124)">
      <text transform="matrix(1, 0, 0, 1, 472.199, 187.39)">
        <tspan x="-7.419" y="1.5" font-family="Arial-BoldMT" font-size="7.11" fill="#FFFFFF">84.2</tspan>
      </text>
    </g>
    <g clip-path="url(#Clip_125)">
      <text transform="matrix(1, 0, 0, 1, 379.269, 391.27)">
        <tspan x="-7.419" y="1.5" font-family="Arial-BoldMT" font-size="7.11" fill="#FFFFFF">81.6</tspan>
      </text>
    </g>
    <g clip-path="url(#Clip_126)">
      <text transform="matrix(1, 0, 0, 1, 432.879, 368.61)">
        <tspan x="-7.419" y="1.5" font-family="Arial-BoldMT" font-size="7.11" fill="#FFFFFF">83.1</tspan>
      </text>
    </g>
    <path d="M116.05,494.43 L116.05,14.17" fill-opacity="0" stroke="#FFFFFF" stroke-width="1" stroke-linejoin="round" stroke-miterlimit="10"/>
    <g clip-path="url(#Clip_127)">
      <text transform="matrix(1, 0, 0, 1, 59.294, 480.9)">
        <tspan x="-45.124" y="3.5" font-family="OpenSans-Regular" font-size="10" fill="#757575">Bucklow-St Martins</tspan>
      </text>
    </g>
    <g clip-path="url(#Clip_128)">
      <text transform="matrix(1, 0, 0, 1, 31.77, 458.25)">
        <tspan x="-17.6" y="3.5" font-family="OpenSans-Regular" font-size="10" fill="#757575">Clifford</tspan>
      </text>
    </g>
    <g clip-path="url(#Clip_129)">
      <text transform="matrix(1, 0, 0, 1, 35.41, 435.6)">
        <tspan x="-21.24" y="3.5" font-family="OpenSans-Regular" font-size="10" fill="#757575">Stretford</tspan>
      </text>
    </g>
    <g clip-path="url(#Clip_130)">
      <text transform="matrix(1, 0, 0, 1, 37.343, 412.94)">
        <tspan x="-23.173" y="3.5" font-family="OpenSans-Regular" font-size="10" fill="#757575">Gorse Hill</tspan>
      </text>
    </g>
    <g clip-path="url(#Clip_131)">
      <text transform="matrix(1, 0, 0, 1, 35.241, 390.29)">
        <tspan x="-21.071" y="3.5" font-family="OpenSans-Regular" font-size="10" fill="#757575">Urmston</tspan>
      </text>
    </g>
    <g clip-path="url(#Clip_132)">
      <text transform="matrix(1, 0, 0, 1, 29.765, 367.64)">
        <tspan x="-15.595" y="3.5" font-family="OpenSans-Regular" font-size="10" fill="#757575">Village</tspan>
      </text>
    </g>
    <g clip-path="url(#Clip_133)">
      <text transform="matrix(1, 0, 0, 1, 30.253, 344.98)">
        <tspan x="-16.083" y="3.5" font-family="OpenSans-Regular" font-size="10" fill="#757575">Flixton</tspan>
      </text>
    </g>
    <g clip-path="url(#Clip_134)">
      <text transform="matrix(1, 0, 0, 1, 35.813, 322.33)">
        <tspan x="-21.643" y="3.5" font-family="OpenSans-Regular" font-size="10" fill="#757575">Longford</tspan>
      </text>
    </g>
    <g clip-path="url(#Clip_135)">
      <text transform="matrix(1, 0, 0, 1, 35.876, 299.68)">
        <tspan x="-21.706" y="3.5" font-family="OpenSans-Regular" font-size="10" fill="#757575">St Mary's</tspan>
      </text>
    </g>
    <g clip-path="url(#Clip_136)">
      <text transform="matrix(1, 0, 0, 1, 51.989, 277.02)">
        <tspan x="-37.819" y="3.5" font-family="OpenSans-Regular" font-size="10" fill="#757575">Davyhulme East</tspan>
      </text>
    </g>
    <g clip-path="url(#Clip_137)">
      <text transform="matrix(1, 0, 0, 1, 53.762, 254.37)">
        <tspan x="-39.592" y="3.5" font-family="OpenSans-Regular" font-size="10" fill="#757575">Davyhulme West</tspan>
      </text>
    </g>
    <g clip-path="url(#Clip_138)">
      <text transform="matrix(1, 0, 0, 1, 42.204, 231.72)">
        <tspan x="-28.034" y="3.5" font-family="OpenSans-Regular" font-size="10" fill="#757575">Broadheath</tspan>
      </text>
    </g>
    <g clip-path="url(#Clip_139)">
      <text transform="matrix(1, 0, 0, 1, 40.119, 209.06)">
        <tspan x="-25.949" y="3.5" font-family="OpenSans-Regular" font-size="10" fill="#757575">Altrincham</tspan>
      </text>
    </g>
    <g clip-path="url(#Clip_140)">
      <text transform="matrix(1, 0, 0, 1, 37.751, 186.41)">
        <tspan x="-23.581" y="3.5" font-family="OpenSans-Regular" font-size="10" fill="#757575">Timperley</tspan>
      </text>
    </g>
    <g clip-path="url(#Clip_141)">
      <text transform="matrix(1, 0, 0, 1, 38.159, 163.76)">
        <tspan x="-23.989" y="3.5" font-family="OpenSans-Regular" font-size="10" fill="#757575">Sale Moor</tspan>
      </text>
    </g>
    <g clip-path="url(#Clip_142)">
      <text transform="matrix(1, 0, 0, 1, 62.932, 141.1)">
        <tspan x="-48.762" y="3.5" font-family="OpenSans-Regular" font-size="10" fill="#757575">Ashton upon Mersey</tspan>
      </text>
    </g>
    <g clip-path="url(#Clip_143)">
      <text transform="matrix(1, 0, 0, 1, 28.566, 118.45)">
        <tspan x="-14.396" y="3.5" font-family="OpenSans-Regular" font-size="10" fill="#757575">Priory</tspan>
      </text>
    </g>
    <g clip-path="url(#Clip_144)">
      <text transform="matrix(1, 0, 0, 1, 41.079, 95.8)">
        <tspan x="-26.909" y="3.5" font-family="OpenSans-Regular" font-size="10" fill="#757575">Brooklands</tspan>
      </text>
    </g>
    <g clip-path="url(#Clip_145)">
      <text transform="matrix(1, 0, 0, 1, 33.872, 73.14)">
        <tspan x="-19.702" y="3.5" font-family="OpenSans-Regular" font-size="10" fill="#757575">Bowdon</tspan>
      </text>
    </g>
    <g clip-path="url(#Clip_146)">
      <text transform="matrix(1, 0, 0, 1, 43.288, 50.49)">
        <tspan x="-29.118" y="3.5" font-family="OpenSans-Regular" font-size="10" fill="#757575">Hale Central</tspan>
      </text>
    </g>
    <g clip-path="url(#Clip_147)">
      <text transform="matrix(1, 0, 0, 1, 40.024, 27.83)">
        <tspan x="-25.854" y="3.5" font-family="OpenSans-Regular" font-size="10" fill="#757575">Hale Barns</tspan>
      </text>
    </g>
    <path d="M116.05,494.42 L705.83,494.42" fill-opacity="0" stroke="#FFFFFF" stroke-width="1" stroke-linejoin="round" stroke-miterlimit="10"/>
    <g>
      <path d="M347.54,523.93 C347.54,526.482 345.472,528.55 342.92,528.55 C340.368,528.55 338.3,526.482 338.3,523.93 C338.3,521.378 340.368,519.31 342.92,519.31 C345.472,519.31 347.54,521.378 347.54,523.93 z" fill="#5AB4AC"/>
      <path d="M347.54,523.93 C347.54,526.482 345.472,528.55 342.92,528.55 C340.368,528.55 338.3,526.482 338.3,523.93 C338.3,521.378 340.368,519.31 342.92,519.31 C345.472,519.31 347.54,521.378 347.54,523.93 z" fill-opacity="0" stroke="#5AB4AC" stroke-width="1" stroke-linecap="round" stroke-linejoin="round" stroke-miterlimit="10"/>
    </g>
    <g>
      <path d="M391.23,523.93 C391.23,526.482 389.162,528.55 386.61,528.55 C384.058,528.55 381.99,526.482 381.99,523.93 C381.99,521.378 384.058,519.31 386.61,519.31 C389.162,519.31 391.23,521.378 391.23,523.93 z" fill="#D8B365"/>
      <path d="M391.23,523.93 C391.23,526.482 389.162,528.55 386.61,528.55 C384.058,528.55 381.99,526.482 381.99,523.93 C381.99,521.378 384.058,519.31 386.61,519.31 C389.162,519.31 391.23,521.378 391.23,523.93 z" fill-opacity="0" stroke="#D8B365" stroke-width="1" stroke-linecap="round" stroke-linejoin="round" stroke-miterlimit="10"/>
    </g>
    <g clip-path="url(#Clip_148)">
      <text transform="matrix(1, 0, 0, 1, 365.167, 524.99)">
        <tspan x="-11.447" y="2.5" font-family="Roboto-Regular" font-size="10" fill="#757575">Male</tspan>
      </text>
    </g>
    <g clip-path="url(#Clip_149)">
      <text transform="matrix(1, 0, 0, 1, 414.236, 524.99)">
        <tspan x="-16.826" y="2.5" font-family="Roboto-Regular" font-size="10" fill="#757575">Female</tspan>
      </text>
    </g>
    <g clip-path="url(#Clip_150)">
      <text transform="matrix(1, 0, 0, 1, 630.889, 558.06)">
        <tspan x="-71.889" y="2.5" font-family="Roboto-Regular" font-size="10" fill="#212121">Source: ONS | @traffordDataLab</tspan>
      </text>
    </g>
  </g>
</svg>
